<?xml version="1.0" encoding="UTF-8"?>
<svg xmlns="http://www.w3.org/2000/svg" xmlns:xlink="http://www.w3.org/1999/xlink" width="375pt" height="374.999991pt" viewBox="0 0 375 374.999991" version="1.2">
<defs>
<clipPath id="clip1">
  <path d="M 37.585938 0 L 343.304688 0 L 343.304688 370.5 L 37.585938 370.5 Z M 37.585938 0 "/>
</clipPath>
</defs>
<g id="surface1">
<g clip-path="url(#clip1)" clip-rule="nonzero">
<path style=" stroke:none;fill-rule:nonzero;fill:rgb(61.959839%,61.178589%,59.609985%);fill-opacity:1;" d="M 62.867188 67.523438 L 73.097656 49.519531 L 88.058594 49.519531 L 99.527344 32.230469 L 116.808594 32.230469 L 139.542969 12.464844 L 153.734375 18.089844 L 175.324219 2.957031 L 194.90625 11.71875 L 214.421875 0 L 236.433594 17.167969 L 252.425781 28.296875 L 267.503906 40.125 L 283.316406 36.75 L 295.171875 54.632812 L 316.933594 69.753906 L 343.304688 95.4375 L 341.613281 113.609375 L 337.5 117.726562 L 342.832031 127.117188 L 342.878906 127.761719 C 344.59375 150.808594 336.820312 162.082031 330.742188 169.164062 L 330.367188 169.601562 L 318.878906 175.339844 L 318.078125 175.679688 C 308.550781 191.238281 300.410156 200.140625 295.457031 204.242188 L 294.898438 204.707031 L 294.1875 204.847656 C 284.695312 206.722656 277.074219 208.425781 270.605469 209.558594 C 264.828125 210.570312 259.78125 211.167969 255.0625 210.992188 C 245.230469 227.832031 240.257812 245.324219 239.730469 264.617188 L 239.730469 277.867188 C 254.367188 307.792969 242.039062 329.601562 210.449219 326.925781 L 207.9375 328.210938 C 217.214844 332.078125 216.242188 338.808594 211.816406 346.230469 L 213.113281 346.386719 L 219.113281 340.378906 L 219.4375 340.195312 C 222.191406 338.59375 224.90625 339.570312 226.816406 340.691406 C 227.726562 341.226562 228.671875 341.921875 229.652344 342.707031 C 230.527344 343.40625 231.433594 344.179688 232.375 344.953125 L 232.660156 345.1875 L 235.546875 349.175781 L 248.128906 358.484375 L 251.453125 358.484375 C 257.371094 358.484375 260.199219 362.238281 258.234375 367.90625 L 257.597656 369.738281 L 241.222656 370.511719 L 220.164062 367.621094 L 193.605469 370.503906 L 139.140625 370.5 C 127.53125 369.414062 124.027344 361.941406 128.5 351.097656 C 132.171875 341.371094 137.5625 331.933594 144.632812 322.789062 C 131.558594 315.171875 119.417969 306.113281 108.214844 295.621094 C 95.128906 286.183594 98.488281 255.839844 116.589844 259.441406 C 125.320312 256.71875 132.785156 256.238281 140.988281 256.539062 C 147.839844 256.789062 155.324219 257.601562 164.75 258.105469 C 161.574219 253.175781 158.128906 246.570312 154.410156 238.363281 C 146.769531 234.527344 140.367188 228.484375 135.167969 220.375 C 117.242188 219.753906 102.382812 217.414062 90.667969 213.28125 L 90.214844 213.125 L 89.835938 212.824219 C 81.414062 206.128906 73.027344 197.863281 62.925781 183.25 L 37.585938 177.972656 L 52.007812 82.804688 L 62.867188 67.523438 "/>
</g>
<path style=" stroke:none;fill-rule:evenodd;fill:rgb(10.198975%,14.509583%,27.449036%);fill-opacity:1;" d="M 54.738281 83.910156 L 40.828125 175.71875 L 70.238281 181.84375 L 123.996094 191.476562 L 283.140625 187.195312 L 317.6875 172.734375 L 328.566406 167.292969 C 334.273438 160.644531 341.667969 150.09375 340.019531 127.976562 L 333.929688 117.246094 L 338.855469 112.316406 L 340.324219 96.539062 L 315.101562 71.976562 L 293.089844 56.675781 L 282.007812 39.960938 L 266.792969 43.210938 L 250.722656 30.601562 L 234.730469 19.480469 L 214.210938 3.472656 L 195.097656 14.949219 L 175.636719 6.242188 L 154.113281 21.328125 L 140.109375 15.773438 L 117.878906 35.101562 L 101.0625 35.101562 L 89.597656 52.390625 L 74.769531 52.390625 L 65.285156 69.066406 L 54.738281 83.910156 "/>
<path style=" stroke:none;fill-rule:evenodd;fill:rgb(98.039246%,89.408875%,43.919373%);fill-opacity:1;" d="M 83.304688 70.160156 L 136.339844 143.054688 L 129.167969 75.195312 L 103.21875 84.054688 L 93.5625 65.53125 C 120.921875 51.113281 151.097656 42.859375 184.089844 40.769531 L 185.597656 64.324219 C 169.78125 65.332031 159.488281 66.910156 154.71875 69.054688 L 165.582031 151.566406 L 112.070312 160.257812 L 97.085938 134.386719 L 73.847656 143.144531 L 70.328125 167 L 46.1875 172.941406 L 61.175781 81.136719 C 68.535156 75.605469 75.910156 71.949219 83.304688 70.160156 Z M 75.835938 98.140625 L 73.847656 118.796875 L 86.84375 114.664062 Z M 75.835938 98.140625 "/>
<path style=" stroke:none;fill-rule:evenodd;fill:rgb(98.039246%,89.408875%,43.919373%);fill-opacity:1;" d="M 189.722656 40.769531 L 212.351562 45.800781 L 213.421875 129.355469 L 235.117188 132.808594 L 258.820312 59.59375 L 282.558594 69.660156 L 296.136719 139.621094 L 316.152344 144.050781 C 322.824219 143.847656 325.304688 132.105469 319.972656 127.039062 L 300.261719 117.878906 L 303.546875 75.800781 L 336.066406 97.242188 L 334.960938 109.621094 L 318.769531 100.261719 L 317.257812 112.84375 C 329.882812 118.902344 336.152344 124.101562 336.066406 128.449219 C 337.375 143.121094 333.738281 163.136719 320.484375 165.875 L 278.433594 159.957031 L 274.613281 129.65625 L 259.996094 126.082031 L 251.679688 158.144531 L 189.722656 150.492188 Z M 270.535156 85.957031 L 263.589844 106.972656 L 273.039062 109.789062 Z M 270.535156 85.957031 "/>
<path style=" stroke:none;fill-rule:evenodd;fill:rgb(100%,100%,100%);fill-opacity:1;" d="M 175.390625 11.183594 L 156.695312 26.484375 L 172.8125 17.59375 L 174.050781 22.246094 L 177.875 18.421875 L 176.632812 23.074219 L 181.695312 18.835938 L 179.628906 23.488281 L 184.691406 20.492188 L 183.449219 24.414062 L 191.507812 16.351562 L 175.390625 11.183594 "/>
<path style=" stroke:none;fill-rule:evenodd;fill:rgb(100%,100%,100%);fill-opacity:1;" d="M 215.269531 9.53125 L 205.96875 15.425781 L 214.441406 14.183594 L 211.445312 17.179688 L 217.433594 17.179688 L 214.855469 19.761719 L 220.746094 19.761719 L 218.675781 21.832031 L 233.136719 24.414062 L 215.269531 9.53125 "/>
<path style=" stroke:none;fill-rule:evenodd;fill:rgb(100%,100%,100%);fill-opacity:1;" d="M 137.535156 22.195312 L 119.714844 40.03125 L 131.597656 38.375 L 126.945312 35.890625 L 136.660156 35.890625 L 131.597656 32.894531 L 137.996094 30.3125 L 135.417969 27.726562 L 140.992188 27.726562 L 137.171875 26.074219 L 137.535156 22.195312 "/>
<path style=" stroke:none;fill-rule:evenodd;fill:rgb(100%,100%,100%);fill-opacity:1;" d="M 102.261719 41.375 L 91.71875 57.503906 L 102.261719 54.089844 L 100.191406 52.019531 L 104.839844 49.851562 L 101.019531 48.609375 L 107.421875 44.785156 L 102.261719 44.785156 L 102.261719 41.375 "/>
<path style=" stroke:none;fill-rule:evenodd;fill:rgb(100%,100%,100%);fill-opacity:1;" d="M 77.257812 57.085938 L 70.855469 68.5625 L 79.328125 64.324219 L 76.429688 64.324219 L 77.257812 57.085938 "/>
<path style=" stroke:none;fill-rule:evenodd;fill:rgb(100%,100%,100%);fill-opacity:1;" d="M 277.179688 44.488281 L 263.714844 47.78125 L 252.25 36.304688 L 261.960938 52.019531 L 273.425781 53.675781 L 269.605469 49.851562 L 277.664062 49.851562 L 274.765625 49.851562 L 281.484375 46.855469 L 277.179688 44.488281 "/>
<path style=" stroke:none;fill-rule:evenodd;fill:rgb(95.289612%,36.859131%,9.799194%);fill-opacity:1;" d="M 74.320312 169.550781 L 54.972656 173.609375 L 87.199219 182.394531 L 93.429688 181.261719 L 79.699219 178.175781 L 88.667969 178.175781 L 74.972656 177.140625 L 83.433594 175.964844 L 71.203125 174.550781 L 78.378906 172.84375 L 70.261719 172.84375 L 74.320312 169.550781 "/>
<path style=" stroke:none;fill-rule:evenodd;fill:rgb(95.289612%,36.859131%,9.799194%);fill-opacity:1;" d="M 114.011719 164.015625 L 138.640625 180.039062 L 149.289062 178.835938 L 138.355469 177.671875 L 147.410156 175.964844 L 133.359375 173.84375 L 145.292969 172.136719 L 129.003906 170.492188 L 142.648438 169.019531 L 126.183594 167.84375 L 140.472656 165.960938 L 124.007812 165.960938 L 158.40625 156.835938 L 114.011719 164.015625 "/>
<path style=" stroke:none;fill-rule:evenodd;fill:rgb(95.289612%,36.859131%,9.799194%);fill-opacity:1;" d="M 184.324219 68.015625 L 171.824219 87.277344 L 178.097656 71.273438 L 168.703125 85.875 L 173.574219 73.023438 L 165.230469 85.203125 L 167.652344 75.101562 L 163.160156 83.101562 L 163.160156 74.050781 L 161.40625 81.023438 L 161.40625 71.976562 L 184.324219 68.015625 "/>
<path style=" stroke:none;fill-rule:evenodd;fill:rgb(95.289612%,36.859131%,9.799194%);fill-opacity:1;" d="M 271.945312 133.117188 L 276.421875 161.707031 L 259.058594 166.554688 L 272.949219 158.203125 L 259.734375 163.082031 L 270.527344 154.730469 L 260.082031 159.257812 L 268.777344 150.554688 L 262.882812 153.355469 L 268.078125 148.15625 L 263.207031 148.15625 L 268.777344 144.304688 L 262.882812 146.054688 L 268.777344 140.15625 L 264.257812 140.15625 L 268.078125 136.332031 L 266.53125 137.878906 L 271.945312 133.117188 "/>
<path style=" stroke:none;fill-rule:evenodd;fill:rgb(95.289612%,36.859131%,9.799194%);fill-opacity:1;" d="M 310.109375 169.4375 L 280.246094 165.179688 L 271.902344 173.53125 L 283.367188 167.605469 L 277.472656 173.503906 L 287.890625 168.65625 L 281.992188 174.558594 L 292.820312 169.773438 L 287.890625 174.707031 L 297.210938 169.15625 L 295.53125 172.832031 L 310.109375 169.4375 "/>
<path style=" stroke:none;fill-rule:evenodd;fill:rgb(95.289612%,36.859131%,9.799194%);fill-opacity:1;" d="M 318.183594 128.792969 L 303.527344 135.953125 L 310.820312 128.652344 L 299.355469 134.578125 L 307 126.929688 L 297.957031 132.128906 L 304.925781 125.152344 L 296.582031 128.304688 L 303.175781 121.703125 L 318.183594 128.792969 "/>
<path style=" stroke:none;fill-rule:evenodd;fill:rgb(95.289612%,36.859131%,9.799194%);fill-opacity:1;" d="M 331.332031 110.605469 L 320.886719 105.351562 L 320.886719 110.578125 L 323.6875 109.527344 L 323.6875 112.652344 L 326.460938 109.878906 L 325.410156 114.054688 L 331.332031 110.605469 "/>
<path style=" stroke:none;fill-rule:evenodd;fill:rgb(95.289612%,36.859131%,9.799194%);fill-opacity:1;" d="M 255.828125 61.238281 L 231.667969 85.421875 L 248.773438 73.09375 L 229.816406 92.214844 L 247.632812 78.507812 L 227.84375 98.011719 L 246.40625 85.460938 L 227.84375 100.726562 L 241.800781 92.667969 L 227.476562 105.660156 L 236.351562 100.601562 L 227.105469 111.710938 L 235.859375 105.660156 L 224.023438 117.507812 L 236.71875 107.515625 L 224.882812 121.332031 L 235.859375 112.570312 L 255.828125 61.238281 "/>
<path style=" stroke:none;fill-rule:evenodd;fill:rgb(95.289612%,36.859131%,9.799194%);fill-opacity:1;" d="M 126.335938 78.667969 L 104.835938 86.253906 L 117.527344 97.320312 L 109.882812 87.6875 L 120.328125 95.746094 L 114.257812 86.046875 L 123.128906 95.949219 L 118.898438 85.433594 L 124.761719 94.519531 L 122.308594 84.679688 L 127.152344 92.535156 L 126.335938 78.667969 "/>
<path style=" stroke:none;fill-rule:evenodd;fill:rgb(95.289612%,36.859131%,9.799194%);fill-opacity:1;" d="M 249.867188 160.359375 L 189.917969 152.503906 L 190.730469 161.359375 L 193.941406 154.324219 L 193.941406 162.976562 L 198.578125 155.929688 L 196.15625 164.984375 L 205.003906 156.53125 L 197.535156 173.875 L 211.246094 157.335938 L 202.421875 172.21875 L 214.867188 159.351562 L 205.773438 172.21875 L 219.289062 159.152344 L 210.65625 172.023438 L 224.929688 158.75 L 218.488281 168.40625 L 228.539062 160.15625 L 223.113281 169.210938 L 232.574219 160.757812 L 226.332031 169.210938 L 236.394531 161.160156 L 230.957031 168.207031 L 238.800781 161.761719 L 233.976562 169.414062 L 243.425781 161.160156 L 238.402344 169.011719 L 249.867188 160.359375 "/>
<path style=" stroke:none;fill-rule:evenodd;fill:rgb(100%,100%,100%);fill-opacity:1;" d="M 240.886719 40.691406 L 235.972656 32.8125 L 221.089844 27.441406 L 207.167969 20.652344 L 199.980469 24.070312 L 206.714844 22.929688 L 202.890625 26.753906 L 208.078125 24.707031 L 206.257812 27.667969 L 211.675781 25.84375 L 208.761719 29.898438 L 215.953125 28.757812 L 212.355469 32.355469 L 220.230469 31.039062 L 217.953125 33.316406 L 225.597656 33.316406 L 222.683594 36.226562 L 230.101562 33.949219 L 226.28125 37.777344 L 232.378906 35.316406 L 231.46875 38.914062 L 235.289062 38.003906 L 231.46875 41.828125 L 237.519531 39.777344 L 235.746094 43.375 L 251.488281 46.339844 L 240.886719 40.691406 "/>
<path style=" stroke:none;fill-rule:evenodd;fill:rgb(100%,100%,100%);fill-opacity:1;" d="M 284.445312 50.191406 L 288.800781 59.816406 L 305.40625 69.289062 L 294.851562 71.519531 L 298.898438 67.464844 L 291.253906 68.378906 L 294.394531 65.238281 L 286.976562 65.921875 L 288.34375 64.554688 L 284.292969 62.957031 L 286.296875 60.957031 L 281.609375 58.496094 L 284.75 56.902344 L 280.472656 54.214844 L 284.523438 54.214844 L 280.699219 51.480469 L 284.445312 50.191406 "/>
<path style=" stroke:none;fill-rule:evenodd;fill:rgb(90.19928%,10.198975%,18.429565%);fill-opacity:1;" d="M 186.097656 73.382812 L 187.457031 146.414062 C 187.457031 146.414062 180.164062 153.710938 180.871094 152.65625 C 181.570312 151.601562 189.34375 140.792969 187.367188 141.515625 C 185.394531 142.238281 179.816406 149.535156 179.816406 149.535156 C 179.816406 149.535156 186.449219 133.925781 185.394531 134.9375 C 184.339844 135.949219 177.441406 143.644531 178.453125 141.882812 C 179.464844 140.125 185.746094 129 184.691406 129.707031 C 183.636719 130.40625 176.34375 138.058594 176.34375 138.058594 C 176.34375 138.058594 186.054688 123.066406 184.339844 124.121094 C 182.625 125.175781 176.34375 133.53125 176.695312 132.476562 C 177.046875 131.421875 185 117.570312 183.636719 118.933594 C 182.273438 120.296875 174.585938 130.367188 175.992188 128.648438 C 177.398438 126.9375 185.703125 113 183.988281 114.40625 C 182.273438 115.8125 175.289062 124.515625 175.992188 123.109375 C 176.695312 121.703125 185.042969 108.820312 183.988281 109.523438 C 182.933594 110.226562 175.640625 118.933594 176.34375 117.527344 C 177.046875 116.121094 185.703125 104.292969 183.988281 104.996094 C 182.273438 105.699219 173.269531 116.472656 174.980469 114.054688 C 176.695312 111.632812 185 99.144531 183.285156 100.511719 C 181.570312 101.875 173.886719 112.292969 175.289062 109.171875 C 176.695312 106.050781 185.703125 95.320312 183.285156 96.332031 C 180.871094 97.347656 173.269531 105.347656 174.980469 102.578125 C 176.695312 99.804688 185 88.640625 182.933594 90.398438 C 180.871094 92.15625 175.289062 96.683594 176.34375 94.925781 C 177.398438 93.167969 184.382812 84.195312 182.273438 85.207031 C 180.164062 86.222656 174.320312 92.15625 174.980469 91.101562 C 175.640625 90.046875 186.097656 73.382812 186.097656 73.382812 "/>
<path style=" stroke:none;fill-rule:evenodd;fill:rgb(90.19928%,10.198975%,18.429565%);fill-opacity:1;" d="M 76.617188 145.359375 L 74.199219 165.1875 L 95.378906 172.484375 L 77.320312 162.375 L 96.78125 168.308594 L 81.144531 158.195312 L 96.078125 163.78125 L 81.144531 154.0625 L 92.960938 158.902344 L 80.789062 150.238281 L 92.960938 154.0625 L 81.144531 147.777344 L 90.894531 147.777344 L 76.617188 145.359375 "/>
<path style=" stroke:none;fill-rule:evenodd;fill:rgb(90.19928%,10.198975%,18.429565%);fill-opacity:1;" d="M 78.023438 107.105469 L 78.023438 114.40625 L 81.84375 114.40625 Z M 78.023438 107.105469 "/>
<path style=" stroke:none;fill-rule:evenodd;fill:rgb(90.19928%,10.198975%,18.429565%);fill-opacity:1;" d="M 299.355469 77.867188 L 290.65625 86.574219 L 296.9375 84.152344 L 289.953125 91.144531 L 296.585938 88.328125 L 291.710938 93.210938 L 296.234375 93.210938 L 291.710938 97.738281 L 295.53125 97.738281 L 293.117188 101.875 L 296.234375 100.816406 L 293.117188 106.753906 L 296.9375 105.347656 L 296.9375 112.648438 L 299.355469 77.867188 "/>
<path style=" stroke:none;fill-rule:evenodd;fill:rgb(90.19928%,10.198975%,18.429565%);fill-opacity:1;" d="M 318.792969 131.546875 L 317.0625 140.832031 L 310.117188 139.070312 L 314.292969 137.003906 L 309.765625 135.949219 L 318.792969 131.546875 "/>
<path style=" stroke:none;fill-rule:evenodd;fill:rgb(90.19928%,10.198975%,18.429565%);fill-opacity:1;" d="M 269.832031 99.804688 L 269.832031 106.050781 L 266.363281 106.050781 Z M 269.832031 99.804688 "/>
<path style=" stroke:none;fill-rule:evenodd;fill:rgb(97.24884%,77.648926%,5.488586%);fill-opacity:1;" d="M 159.246094 84.238281 L 167.566406 149.265625 L 173.484375 155.191406 L 168.355469 143.605469 L 174.535156 151.257812 L 168.355469 136.480469 L 174.273438 144.917969 L 166.628906 127.363281 L 172.175781 135.015625 L 166.105469 122.226562 L 171.234375 127.363281 L 164.796875 115.101562 L 170.449219 120.761719 L 164.53125 108.917969 L 169.402344 113.789062 L 164.269531 102.054688 L 168.878906 106.664062 L 163.070312 94.140625 L 167.152344 98.226562 L 159.246094 84.238281 "/>
<path style=" stroke:none;fill-rule:evenodd;fill:rgb(97.24884%,77.648926%,5.488586%);fill-opacity:1;" d="M 140.246094 152.773438 L 131.640625 71.320312 L 104.621094 80.546875 L 97.433594 66.757812 C 122.941406 53.753906 150.925781 46.105469 181.410156 43.828125 L 182.550781 61.652344 C 168.378906 62.664062 158.539062 64.191406 153.542969 66.4375 L 151.597656 67.3125 L 162.375 149.179688 Z M 139.90625 152.832031 L 113.558594 157.109375 L 98.347656 130.84375 L 71.257812 141.054688 L 67.773438 164.675781 L 49.71875 169.121094 L 63.816406 82.75 C 69.988281 78.246094 76.097656 75.164062 82.140625 73.4375 Z M 70.578125 122.84375 L 91.34375 116.246094 L 73.757812 89.84375 Z M 70.578125 122.84375 "/>
<path style=" stroke:none;fill-rule:evenodd;fill:rgb(97.24884%,77.648926%,5.488586%);fill-opacity:1;" d="M 209.515625 48.109375 L 210.585938 131.808594 L 237.085938 136.027344 L 260.582031 63.457031 L 280.035156 71.707031 L 293.683594 142.015625 L 315.882812 146.929688 L 316.238281 146.917969 C 326.882812 146.597656 328.023438 130.734375 321.949219 124.960938 L 321.605469 124.632812 L 303.273438 116.117188 L 306.023438 80.871094 L 333.058594 98.695312 L 332.507812 104.890625 L 316.4375 95.601562 L 314.167969 114.542969 L 316.019531 115.433594 C 322.25 118.421875 326.730469 121.117188 329.601562 123.496094 C 332.609375 125.992188 333.21875 127.617188 333.203125 128.390625 L 333.199219 128.546875 L 333.210938 128.703125 C 334.535156 143.574219 330.574219 160.386719 320.363281 162.960938 L 281.003906 157.421875 L 277.207031 127.335938 L 257.933594 122.621094 L 249.535156 154.988281 L 192.585938 147.957031 L 192.585938 44.34375 Z M 259.941406 108.878906 L 276.339844 113.765625 L 271.839844 79.753906 L 270.046875 79.246094 L 259.941406 108.878906 "/>
<path style=" stroke:none;fill-rule:nonzero;fill:rgb(95.689392%,59.999084%,6.269836%);fill-opacity:1;" d="M 134.488281 98.269531 C 139.777344 93.71875 145.863281 90.386719 154.113281 89.871094 L 154.5625 89.847656 L 162.375 149.179688 L 140.246094 152.773438 Z M 55.929688 131.0625 C 60.0625 130.789062 64.375 130.050781 68.390625 128.535156 C 82.859375 123.070312 88.730469 113.234375 98.417969 117.46875 C 103.558594 119.710938 108.769531 119.117188 113.675781 116.78125 L 139.90625 152.832031 L 113.558594 157.109375 L 98.347656 130.84375 L 71.257812 141.054688 L 67.773438 164.675781 L 49.71875 169.121094 L 55.929688 131.0625 "/>
<path style=" stroke:none;fill-rule:nonzero;fill:rgb(95.289612%,68.238831%,5.099487%);fill-opacity:1;" d="M 246.933594 105.617188 C 248.90625 105.785156 250.707031 106.15625 252.261719 106.8125 C 260.898438 110.4375 278.273438 121.152344 290.46875 125.476562 L 293.683594 142.015625 L 315.882812 146.929688 L 316.238281 146.917969 C 321.59375 146.757812 324.539062 142.667969 325.378906 137.902344 C 327.90625 139.785156 330.363281 141.851562 332.667969 144.050781 C 331.078125 153.441406 327.066406 161.269531 320.363281 162.960938 L 281.003906 157.421875 L 277.207031 127.335938 L 257.933594 122.621094 L 249.535156 154.988281 L 192.585938 147.957031 L 192.585938 101.804688 C 197.828125 104.273438 203.25 106.667969 207.214844 108.039062 C 208.148438 108.363281 209.179688 108.585938 210.289062 108.722656 L 210.585938 131.808594 L 237.085938 136.027344 L 246.933594 105.617188 "/>
<path style=" stroke:none;fill-rule:evenodd;fill:rgb(10.198975%,14.509583%,27.449036%);fill-opacity:1;" d="M 278.90625 176.121094 L 284.003906 171.015625 L 320.484375 165.875 C 308.964844 186.539062 299.042969 197.550781 293.632812 202.035156 C 274.699219 205.769531 263.226562 208.832031 253.488281 208.023438 C 242.8125 225.753906 237.417969 244.203125 236.863281 264.578125 L 236.863281 278.539062 C 251.324219 307.484375 239.582031 326.886719 209.882812 323.992188 L 200.203125 328.9375 L 207.179688 330.976562 C 214.394531 334.003906 213.496094 339.261719 206.875 348.519531 L 214.152344 349.402344 L 220.875 342.671875 C 223.664062 341.054688 226.828125 344.109375 230.558594 347.167969 L 233.488281 351.21875 L 247.183594 361.355469 L 251.453125 361.355469 C 255.464844 361.355469 256.824219 363.222656 255.527344 366.964844 L 241.351562 367.636719 L 220.207031 364.734375 L 193.453125 367.636719 L 139.273438 367.636719 C 129.9375 366.765625 127.242188 361.589844 131.179688 352.113281 C 135.085938 341.769531 141.011719 331.71875 148.953125 321.957031 C 134.914062 314.085938 121.941406 304.566406 110.03125 293.394531 C 96.230469 283.746094 104.257812 259.296875 116.722656 262.410156 C 134.003906 256.808594 145.933594 260.398438 170.519531 261.226562 C 166.546875 256.386719 161.90625 248.054688 156.597656 236.238281 C 148.703125 232.515625 142.097656 226.289062 136.789062 217.558594 C 118.339844 217.019531 103.285156 214.695312 91.621094 210.578125 C 82.703125 203.488281 73.785156 194.574219 62.617188 177.671875 L 82.667969 181.964844 L 100.402344 183.652344 L 122.0625 185.253906 C 128.863281 179.828125 135.496094 180.792969 150.738281 178.636719 L 148.730469 172.769531 C 146.667969 170.472656 147.042969 166.722656 149.847656 161.519531 L 181.984375 155.460938 L 197.496094 168.5 L 200.847656 174.386719 C 215.558594 171.433594 239.882812 168.296875 278.90625 176.121094 Z M 178.042969 340.617188 L 172.597656 345.503906 L 181.078125 344.199219 C 180.546875 340.40625 180.480469 340.074219 178.042969 340.617188 "/>
<path style=" stroke:none;fill-rule:evenodd;fill:rgb(100%,100%,100%);fill-opacity:1;" d="M 152.617188 173.730469 C 152.382812 179.222656 152.882812 182.847656 154.113281 184.597656 C 155.761719 185.320312 157.703125 182.199219 161.757812 185.210938 L 163.449219 195.058594 C 163.890625 196.144531 164.769531 196.367188 166.089844 195.734375 L 169.742188 194.550781 C 171.578125 196.914062 168.578125 198.5625 167.636719 199.503906 L 164.453125 198.648438 L 165.632812 200.640625 C 165.464844 203.210938 168.253906 205.683594 169.636719 208.035156 C 172.292969 209.300781 175.28125 209.683594 179.179688 207.042969 C 181.921875 205.457031 184.753906 201.6875 187.667969 195.734375 L 188.34375 189.371094 C 196.394531 192.96875 192.335938 163.664062 187.160156 180.433594 L 184.859375 180.433594 C 181.222656 177.023438 183.515625 171.078125 177.753906 170.722656 C 172.164062 169.375 161.171875 177.550781 152.617188 173.730469 "/>
<path style=" stroke:none;fill-rule:evenodd;fill:rgb(100%,100%,100%);fill-opacity:1;" d="M 171.925781 212.859375 C 159.226562 210.328125 146.46875 186.410156 139.148438 188.945312 C 134.855469 188.253906 128.816406 185.679688 122.355469 188.695312 C 110.839844 184.425781 102.519531 183.121094 98.484375 189.492188 L 70.238281 181.203125 C 74.492188 190.46875 83.300781 198.4375 94.144531 207.382812 C 103.453125 211.140625 113.757812 212.132812 125.058594 210.359375 C 113.425781 208.632812 107.714844 206.25 107.910156 203.21875 C 121.929688 206.3125 129.96875 206.96875 132.027344 205.179688 L 131.011719 193.875 C 145.40625 226.460938 163.664062 242.5 182.171875 232.417969 C 179.902344 229.875 178.816406 224.921875 178.917969 217.550781 C 182.226562 223.695312 187.011719 229.289062 189.019531 230.503906 C 217.46875 237.769531 231.945312 220.734375 232.609375 187.175781 C 234.511719 188.546875 235.59375 193.71875 237.648438 199.648438 C 252.511719 207.617188 273.117188 204.519531 293.050781 198.878906 L 313.042969 173.03125 L 286.535156 175.933594 L 278.890625 185.210938 L 278.890625 179.25 C 253.585938 173.40625 237.757812 172.523438 231.402344 176.609375 C 214.617188 173.738281 204.980469 177.84375 202.921875 180.9375 L 204.648438 188.695312 C 201.914062 185.535156 198.308594 184.085938 195.277344 181.34375 C 195.277344 181.34375 193.796875 190.585938 190.644531 192.082031 C 188.511719 219.855469 171.925781 212.859375 171.925781 212.859375 "/>
<path style=" stroke:none;fill-rule:evenodd;fill:rgb(100%,100%,100%);fill-opacity:1;" d="M 183.828125 238.644531 C 180.535156 243.574219 166.398438 240.980469 162.808594 237.976562 C 165.855469 248.371094 169.789062 257.371094 174.972656 262.769531 C 192.15625 263.554688 208.75 266.332031 223.628906 271.960938 C 226.417969 269.09375 228.238281 263.242188 229.085938 254.40625 C 223.441406 260.628906 219.765625 262.640625 218.058594 260.445312 C 221.003906 259.003906 232.125 249.875 229.671875 246.757812 C 223.742188 250.472656 220.113281 251.550781 218.796875 249.992188 C 224.007812 247.714844 233.019531 241.753906 233.203125 235.574219 C 226.824219 240.644531 222.511719 242.949219 220.269531 242.492188 C 227.921875 237.335938 232.1875 231.453125 233.054688 224.839844 C 213.859375 238.375 201.03125 244.113281 189.164062 236.460938 C 188.246094 238.558594 188.910156 240.519531 191.15625 242.34375 C 196.0625 245.179688 202.140625 247.535156 209.390625 249.410156 C 204.207031 251.925781 198.988281 252.535156 192.703125 247.957031 L 194.683594 254.261719 C 196.054688 257.003906 199.78125 259.164062 205.855469 260.738281 C 202.816406 262.894531 199.089844 262.253906 194.683594 258.824219 C 189.972656 261.738281 183.800781 262.511719 182.4375 260.773438 C 187.589844 259.777344 190.144531 257.386719 190.105469 253.601562 L 188.234375 248.496094 C 183.113281 252.464844 177.972656 252.230469 173.875 250.023438 C 178.167969 249.1875 183.347656 247.195312 186.015625 243.523438 C 185.703125 240.832031 184.976562 239.207031 183.828125 238.644531 "/>
<path style=" stroke:none;fill-rule:evenodd;fill:rgb(100%,100%,100%);fill-opacity:1;" d="M 229.84375 277.824219 C 197.992188 266.488281 139.378906 256.140625 118.335938 265.957031 C 106.949219 262.960938 103.285156 278.882812 107.972656 284.53125 C 110.554688 287.640625 113.617188 289.164062 124.074219 289.074219 C 121.882812 292.117188 118.964844 292.238281 113.726562 291.671875 C 132.285156 306.644531 155.585938 319.058594 173.996094 330.019531 C 181.878906 334.53125 184.683594 339.839844 183.863281 346.289062 L 178.445312 355.394531 L 169.75 360.796875 C 166.804688 362.164062 167.589844 365.246094 172.175781 366.167969 L 193.035156 364.59375 C 200.757812 358.757812 200.015625 353.898438 208.375 342.066406 C 210.679688 337.222656 207.136719 332.101562 198.855469 330.964844 C 190.144531 325.527344 183.96875 320.070312 177.34375 311.777344 C 174.675781 298.753906 159.179688 287.476562 139.898438 278.894531 C 156.054688 280.527344 168.554688 289.214844 177.402344 304.957031 C 190.789062 312.210938 204.46875 317.707031 221.660156 317.867188 C 239.585938 318.582031 245.84375 284.9375 229.84375 277.824219 "/>
<path style=" stroke:none;fill-rule:evenodd;fill:rgb(10.198975%,14.509583%,27.449036%);fill-opacity:1;" d="M 230.324219 195.539062 C 228.699219 219.421875 217.847656 230.28125 197.777344 228.117188 L 211.445312 224.523438 L 201.597656 221.851562 L 212.140625 221.160156 L 203.109375 218.257812 L 216.65625 217.566406 L 204.957031 213.742188 L 221.0625 214.898438 L 208.085938 210.144531 L 221.753906 209.917969 L 208.085938 204.238281 L 224.53125 206.089844 L 213.648438 200.644531 C 223.402344 201.367188 227.070312 201.558594 224.644531 201.222656 L 214.109375 196.585938 C 222.164062 197.324219 227.566406 196.976562 230.324219 195.539062 "/>
<path style=" stroke:none;fill-rule:evenodd;fill:rgb(10.198975%,14.509583%,27.449036%);fill-opacity:1;" d="M 310.355469 169.046875 L 294.371094 194.203125 C 268.847656 200.992188 251.011719 199.332031 240.863281 189.222656 L 254.640625 195.253906 L 252.207031 186.785156 L 258.234375 192.816406 L 257.078125 187.015625 L 264.027344 195.714844 L 262.515625 186.554688 L 269.699219 195.714844 L 268.542969 187.601562 L 273.984375 194.203125 L 273.289062 187.371094 L 279.109375 192.78125 L 279.109375 187.015625 L 282.554688 194.4375 L 283.402344 187.832031 L 288.773438 193.683594 L 287.652344 185.859375 L 293.09375 191.304688 L 292.171875 184.007812 L 296.453125 186.785156 L 294.019531 180.183594 L 299.121094 182.496094 L 297.839844 177.050781 L 300.738281 177.050781 L 299.128906 173.046875 L 303.171875 175.078125 L 301.433594 170.789062 L 310.355469 169.046875 "/>
<path style=" stroke:none;fill-rule:evenodd;fill:rgb(10.198975%,14.509583%,27.449036%);fill-opacity:1;" d="M 71.5 178.34375 C 78.570312 189.527344 86.585938 198.617188 95.550781 205.613281 L 102.703125 202.277344 L 92.019531 201.464844 L 98.503906 198.699219 L 90.367188 197.714844 L 96.535156 195.613281 L 86.546875 193.890625 L 92.222656 192.28125 L 83.320312 191.246094 L 89.382812 188.835938 L 82.230469 187.222656 L 87.660156 183.398438 L 79.527344 183.398438 L 80.195312 181.4375 L 75.285156 180.382812 L 71.5 178.34375 "/>
<path style=" stroke:none;fill-rule:evenodd;fill:rgb(10.198975%,14.509583%,27.449036%);fill-opacity:1;" d="M 134.542969 197.054688 C 142.886719 214.492188 153.96875 226.425781 167.792969 232.867188 L 159.085938 226.96875 L 164.660156 226.136719 L 154.113281 223.375 L 161.527344 222.3125 L 150.523438 219.175781 L 158.855469 219.175781 L 147.160156 214.199219 L 155.265625 214.199219 L 145.78125 211.066406 L 153.652344 210.375 L 142.648438 207.011719 L 150.0625 206.320312 L 140.238281 203.1875 L 146.242188 201.574219 L 134.542969 197.054688 "/>
<path style=" stroke:none;fill-rule:evenodd;fill:rgb(10.198975%,14.509583%,27.449036%);fill-opacity:1;" d="M 230.558594 276.417969 C 200.609375 263.089844 166.132812 263.410156 124.367188 265.40625 L 133.070312 271.714844 L 130.875 266.433594 L 139.101562 274.667969 L 136.890625 266.234375 L 144.578125 272.269531 L 142.648438 265.957031 L 150.84375 274.160156 L 149.464844 268.445312 L 158.765625 275.542969 L 156.277344 267.617188 L 164.753906 276.09375 L 162.035156 269.230469 L 170.78125 277.984375 L 169.402344 270.335938 L 177.046875 277.984375 L 176.21875 270.890625 L 183.585938 281.257812 L 181.699219 272.546875 L 190.953125 283.191406 L 189.894531 274.714844 L 198.324219 283.148438 L 196.710938 275.816406 L 205.691406 284.808594 L 204.257812 278.03125 L 214.164062 286.191406 L 212.554688 279.34375 L 221.808594 288.605469 L 220.304688 280.566406 L 230.832031 292.457031 L 227.011719 282.917969 L 235.484375 291.394531 L 230.558594 276.417969 "/>
<path style=" stroke:none;fill-rule:evenodd;fill:rgb(10.198975%,14.509583%,27.449036%);fill-opacity:1;" d="M 108.800781 277.710938 C 108.78125 285.191406 115.246094 287.925781 128.1875 285.914062 L 127.359375 278.261719 L 122.433594 284.53125 L 123.8125 278.261719 L 117.925781 281.570312 L 119.164062 276.648438 L 114.671875 280.195312 L 116.167969 274.160156 L 112.898438 277.433594 L 113.726562 270.058594 L 108.800781 277.710938 "/>
<path style=" stroke:none;fill-rule:evenodd;fill:rgb(10.198975%,14.509583%,27.449036%);fill-opacity:1;" d="M 156.683594 285.296875 C 174.515625 293.140625 194.640625 299.335938 217.054688 303.882812 C 194.535156 302.574219 177.492188 298.570312 165.9375 291.871094 L 156.683594 285.296875 "/>
<path style=" stroke:none;fill-rule:evenodd;fill:rgb(10.198975%,14.509583%,27.449036%);fill-opacity:1;" d="M 192.671875 256.78125 C 194.160156 262.429688 195.964844 265.789062 198.09375 266.851562 L 203.277344 267.378906 C 199.210938 264.492188 195.679688 260.960938 192.671875 256.78125 "/>
<path style=" stroke:none;fill-rule:evenodd;fill:rgb(100%,100%,100%);fill-opacity:1;" d="M 249.867188 207.570312 L 238.214844 231.085938 L 239.582031 223.058594 L 235.523438 222.300781 L 241.09375 219.421875 L 236.515625 218.289062 L 242.226562 216.542969 L 237.269531 214.652344 L 243.59375 213.894531 L 238.96875 211.394531 L 244.160156 210.449219 L 238.214844 207.1875 L 244.347656 208.132812 L 240.714844 204.5 L 249.867188 207.570312 "/>
<path style=" stroke:none;fill-rule:evenodd;fill:rgb(10.198975%,14.509583%,27.449036%);fill-opacity:1;" d="M 188.511719 199.367188 L 195.578125 206.050781 L 184.980469 204.117188 Z M 188.511719 199.367188 "/>
<path style=" stroke:none;fill-rule:evenodd;fill:rgb(10.198975%,14.509583%,27.449036%);fill-opacity:1;" d="M 122.007812 293.457031 C 126.613281 298.039062 142.730469 309.070312 170.359375 326.546875 L 176.28125 324.25 L 168.636719 324.25 L 172.652344 322.148438 L 166.152344 322.148438 L 170.742188 320.042969 L 163.097656 320.042969 L 167.492188 317.554688 L 158.703125 316.792969 L 163.859375 314.878906 L 153.542969 313.347656 L 159.847656 311.816406 L 148.953125 310.671875 L 155.070312 309.140625 L 144.496094 308.847656 L 151.628906 306.65625 L 140.734375 306.273438 L 147.617188 304.550781 L 139.398438 303.59375 L 144.558594 301.875 L 135.960938 301.296875 L 140.738281 299.578125 L 131.5 299.953125 L 136.53125 297.28125 L 130.035156 297.28125 L 132.902344 294.410156 L 127.550781 295.179688 L 130.992188 291.734375 L 122.007812 293.457031 "/>
<path style=" stroke:none;fill-rule:evenodd;fill:rgb(100%,100%,100%);fill-opacity:1;" d="M 175.75 169.019531 C 163.386719 171.957031 155.664062 172.683594 152.582031 171.195312 C 151.910156 167.875 152.734375 165.167969 155.054688 163.074219 C 154.015625 165.210938 153.976562 167.527344 154.9375 170.019531 C 155.273438 166.488281 156.351562 164.488281 158.171875 164.015625 C 156.796875 166.730469 156.523438 168.847656 157.347656 170.371094 C 157.773438 166.746094 158.929688 164.472656 160.816406 163.542969 C 159.019531 166.773438 158.785156 168.851562 160.109375 169.78125 C 160.375 166.371094 161.570312 163.941406 163.699219 162.484375 C 161.949219 166.136719 161.460938 168.648438 162.230469 170.019531 C 163.054688 166.429688 164.488281 163.957031 166.519531 162.601562 C 164.703125 166.339844 164.234375 168.652344 165.109375 169.546875 C 166.277344 166.460938 167.945312 164.070312 170.109375 162.367188 C 168.46875 165.332031 167.839844 167.550781 168.226562 169.019531 C 169.34375 165.53125 170.890625 163.355469 172.871094 162.484375 C 171.222656 165.042969 170.5 167.144531 170.699219 168.785156 L 175.515625 162.484375 L 173.226562 168.3125 L 177.515625 162.25 L 176.105469 167.960938 L 182.753906 164.015625 C 181.070312 166.40625 178.734375 168.074219 175.75 169.019531 "/>
<path style=" stroke:none;fill-rule:evenodd;fill:rgb(100%,100%,100%);fill-opacity:1;" d="M 184.589844 166.234375 L 178.929688 168.546875 C 182.3125 170.15625 184.546875 173.585938 185.632812 178.84375 L 187.925781 175.375 L 185.867188 176.433594 L 187.6875 172.964844 L 185.277344 174.3125 L 187.335938 171.433594 L 184.101562 172.136719 L 186.339844 169.902344 L 183.042969 170.488281 L 185.632812 168.902344 L 182.632812 169.257812 L 184.589844 166.234375 "/>
<path style=" stroke:none;fill-rule:evenodd;fill:rgb(100%,100%,100%);fill-opacity:1;" d="M 151.757812 323.230469 C 144.929688 331.105469 133.847656 347.007812 132.121094 361.003906 C 134.425781 365.109375 139.996094 364.257812 148.824219 358.449219 C 140.144531 360.953125 135.914062 360.78125 136.128906 357.929688 C 137.058594 356.375 141.0625 355.480469 148.148438 355.253906 C 140.332031 354.992188 136.324219 354.085938 136.128906 352.535156 C 137.144531 351.324219 141.9375 351.234375 150.5 352.265625 L 137.699219 349.085938 L 152.855469 349.960938 L 139.199219 345.703125 C 141.160156 344.414062 145.710938 344.34375 152.855469 345.503906 L 141.519531 341.246094 L 154.953125 342.9375 L 143.398438 338.804688 C 145.171875 338.125 149.371094 338.367188 156 339.53125 L 145.34375 335.917969 C 147 334.507812 150.917969 334.71875 157.097656 336.546875 L 147.972656 332.28125 L 159.195312 334.660156 L 149.351562 329.394531 L 159.195312 330.621094 L 152.855469 327.425781 L 162.808594 328.6875 L 151.757812 323.230469 "/>
<path style=" stroke:none;fill-rule:evenodd;fill:rgb(10.198975%,14.509583%,27.449036%);fill-opacity:1;" d="M 201.238281 335.285156 C 207.0625 335.574219 206.570312 339.75 199.769531 347.8125 L 203.382812 340.792969 L 199.558594 343.148438 L 202.125 339.324219 L 198.929688 340.371094 L 201.445312 337.855469 L 198.042969 338.902344 L 201.238281 335.285156 "/>
<path style=" stroke:none;fill-rule:evenodd;fill:rgb(10.198975%,14.509583%,27.449036%);fill-opacity:1;" d="M 198.929688 353.144531 L 193.082031 364.558594 L 171.910156 366.652344 L 172 362.167969 L 174.101562 364.269531 L 176.664062 363.96875 L 178.796875 363.921875 L 178.132812 362.375 L 182.765625 363.570312 L 183.542969 362.375 L 187.113281 363.042969 L 188.960938 363.140625 L 191.109375 362.34375 L 189.390625 359.042969 L 193.382812 360.269531 L 191.984375 356.792969 L 195.28125 357.46875 L 194.257812 353.992188 L 196.683594 356.417969 L 198.929688 353.144531 "/>
<path style=" stroke:none;fill-rule:evenodd;fill:rgb(10.198975%,14.509583%,27.449036%);fill-opacity:1;" d="M 166.875 183.378906 L 171.34375 181.023438 L 176.8125 181.023438 L 172.519531 183.144531 L 175.515625 183.96875 L 171.695312 186.496094 L 169.636719 186.378906 C 168.199219 186.574219 167.277344 185.574219 166.875 183.378906 "/>
<path style=" stroke:none;fill-rule:evenodd;fill:rgb(10.198975%,14.509583%,27.449036%);fill-opacity:1;" d="M 174.046875 199.269531 L 169.992188 199.269531 L 169.050781 200.210938 L 167.519531 199.855469 L 164.875 200.855469 L 169.050781 201.796875 L 171.578125 200.738281 L 174.046875 200.738281 L 174.046875 199.269531 "/>
<path style=" stroke:none;fill-rule:evenodd;fill:rgb(10.198975%,14.509583%,27.449036%);fill-opacity:1;" d="M 174.371094 202.871094 C 171.199219 205.472656 168.582031 205.703125 166.519531 203.5625 C 168.523438 204.125 171.136719 203.894531 174.371094 202.871094 "/>
<path style=" stroke:none;fill-rule:evenodd;fill:rgb(100%,100%,100%);fill-opacity:1;" d="M 156.824219 189.75 L 157.289062 194.382812 L 162.726562 200.902344 L 159.226562 194.382812 L 159.226562 189.914062 L 156.824219 189.75 "/>
<path style=" stroke:none;fill-rule:evenodd;fill:rgb(10.198975%,14.509583%,27.449036%);fill-opacity:1;" d="M 153.875 175.375 L 154.472656 183.863281 L 159.609375 182.90625 L 155.90625 182.429688 L 159.25 181.472656 L 156.023438 180.515625 L 159.25 179.800781 L 156.265625 178.964844 L 158.292969 178.246094 L 156.265625 177.289062 L 159.609375 176.214844 L 153.875 175.375 "/>
<path style=" stroke:none;fill-rule:evenodd;fill:rgb(10.198975%,14.509583%,27.449036%);fill-opacity:1;" d="M 229.8125 316.9375 C 213.289062 316.355469 196.097656 311.835938 178.238281 303.378906 L 178.832031 299.703125 L 182.507812 305.316406 L 181.464844 301.191406 L 185.582031 306.359375 L 184.691406 301.9375 L 189.554688 308.097656 L 188.664062 302.828125 L 193.527344 308.992188 L 192.632812 303.675781 L 196.753906 310.035156 L 196.007812 304.125 L 199.535156 309.886719 L 199.085938 305.167969 L 203.800781 311.078125 L 203.355469 306.65625 L 207.476562 311.773438 L 207.476562 306.804688 L 211 312.519531 L 211 307.800781 L 214.523438 313.5625 L 214.96875 308.546875 L 217.523438 313.710938 L 218.347656 309.140625 L 221.152344 314.664062 L 221.871094 310.035156 L 224.101562 314.855469 L 225.394531 310.183594 L 229.8125 316.9375 "/>
<path style=" stroke:none;fill-rule:evenodd;fill:rgb(10.198975%,14.509583%,27.449036%);fill-opacity:1;" d="M 230.171875 178.3125 C 220.460938 176.652344 212.6875 177.164062 206.855469 179.851562 L 208.007812 186.347656 L 209.328125 179.6875 L 210.484375 186.15625 L 211.820312 179.523438 L 212.789062 185.769531 L 214.683594 179.335938 L 215.269531 184.253906 L 216.824219 179.191406 L 217.550781 184.636719 L 218.898438 179.65625 L 220.433594 184.253906 L 220.953125 178.921875 L 223.105469 184.253906 L 223.289062 178.765625 L 225.582031 183.675781 L 225.582031 179.464844 L 228.65625 184.445312 L 228.078125 179.65625 L 231.324219 182.90625 L 230.171875 178.3125 "/>
<path style=" stroke:none;fill-rule:evenodd;fill:rgb(10.198975%,14.509583%,27.449036%);fill-opacity:1;" d="M 270.460938 178.859375 C 255.320312 175.355469 243.675781 174.539062 235.53125 176.410156 L 237.816406 182.90625 L 237.816406 177.929688 L 241.445312 183.867188 L 241.445312 178.699219 L 243.558594 183.101562 L 242.984375 177.734375 L 246.230469 182.714844 L 246.230469 177.929688 L 248.898438 182.136719 L 248.898438 178.121094 L 251.953125 182.332031 L 251.785156 177.550781 L 254.832031 182.714844 L 254.832031 178.503906 L 257.695312 182.90625 L 257.695312 179.464844 L 260.941406 182.714844 L 260.941406 179.464844 L 263.996094 182.523438 L 263.417969 179.464844 L 266.875 182.929688 L 266.875 179.65625 L 270.871094 183.65625 L 270.460938 178.859375 "/>
<path style=" stroke:none;fill-rule:evenodd;fill:rgb(10.198975%,14.509583%,27.449036%);fill-opacity:1;" d="M 190.085938 177.410156 L 188.21875 181.332031 L 189.101562 186.4375 L 189.199219 183.5 L 190.960938 184.578125 L 189.398438 182.023438 L 190.28125 181.136719 L 189.496094 180.351562 L 190.085938 177.410156 "/>
<path style=" stroke:none;fill-rule:evenodd;fill:rgb(10.198975%,14.509583%,27.449036%);fill-opacity:1;" d="M 194.96875 182.945312 L 202.722656 188.789062 C 203.746094 192.121094 203.550781 194.964844 202.132812 197.324219 L 200.863281 189.773438 L 199.390625 192.515625 L 199.683594 189.082031 L 197.730469 192.710938 L 198.605469 187.714844 L 196.253906 191.640625 L 197.335938 187.027344 L 194.488281 190.949219 L 195.667969 186.734375 L 193.417969 189.96875 L 195.46875 185.652344 L 193.699219 187.488281 L 194.96875 182.945312 "/>
<path style=" stroke:none;fill-rule:evenodd;fill:rgb(10.198975%,14.509583%,27.449036%);fill-opacity:1;" d="M 181.414062 218.058594 L 189.054688 229.355469 L 195.792969 229.355469 L 188.695312 227.175781 L 194.148438 226.617188 L 187.425781 224.441406 L 193.0625 223.898438 L 186.324219 222.429688 L 191.609375 221.703125 L 185.234375 220.253906 L 190.882812 218.96875 L 183.964844 218.96875 L 189.054688 216.425781 L 181.414062 218.058594 "/>
<path style=" stroke:none;fill-rule:evenodd;fill:rgb(10.198975%,14.509583%,27.449036%);fill-opacity:1;" d="M 194.886719 251.761719 C 195.789062 254.996094 198.882812 257.425781 204.164062 259.046875 L 197.425781 254.5 L 204.34375 256.492188 L 198.40625 254.523438 L 204.164062 254.523438 L 200.160156 253.214844 L 204.164062 252.667969 L 194.886719 251.761719 "/>
<path style=" stroke:none;fill-rule:evenodd;fill:rgb(10.198975%,14.509583%,27.449036%);fill-opacity:1;" d="M 192.699219 241.375 L 201.609375 245.5625 L 197.246094 242.660156 L 201.066406 242.660156 L 197.066406 241.558594 L 200.523438 241.011719 L 191.609375 239.378906 L 192.699219 241.375 "/>
<path style=" stroke:none;fill-rule:evenodd;fill:rgb(10.198975%,14.509583%,27.449036%);fill-opacity:1;" d="M 226.277344 259.738281 L 222.1875 270.34375 L 216.539062 267.789062 L 221.824219 268.332031 L 217.636719 266.15625 L 222.367188 266.699219 L 218.363281 264.691406 L 222.1875 264.691406 L 219.632812 263.058594 L 224.183594 263.058594 L 226.277344 259.738281 "/>
<path style=" stroke:none;fill-rule:evenodd;fill:rgb(10.198975%,14.509583%,27.449036%);fill-opacity:1;" d="M 168.132812 242.101562 C 169.753906 244.96875 171.570312 246.789062 173.585938 247.558594 L 177.953125 247.558594 L 172.6875 246.660156 L 176.503906 245.199219 L 172.316406 245.199219 L 175.414062 243.566406 L 171.214844 243.566406 L 172.863281 241.917969 L 168.132812 242.101562 "/>
<path style=" stroke:none;fill-rule:evenodd;fill:rgb(10.198975%,14.509583%,27.449036%);fill-opacity:1;" d="M 169.863281 366.257812 L 170.871094 361.800781 L 176.984375 358.550781 L 172.265625 361.800781 L 174.410156 366 C 172.410156 365.984375 170.894531 366.070312 169.863281 366.257812 "/>
<path style=" stroke:none;fill-rule:evenodd;fill:rgb(10.198975%,14.509583%,27.449036%);fill-opacity:1;" d="M 176.984375 364.417969 L 176.664062 362.332031 L 183.097656 358.167969 L 178.796875 362.121094 L 179.273438 364.035156 L 176.984375 364.417969 "/>
<path style=" stroke:none;fill-rule:evenodd;fill:rgb(10.198975%,14.509583%,27.449036%);fill-opacity:1;" d="M 182.296875 363.917969 L 183.222656 361.867188 L 186.855469 359.058594 L 184.246094 362.4375 L 184.246094 363.96875 L 182.296875 363.917969 "/>
<path style=" stroke:none;fill-rule:evenodd;fill:rgb(10.198975%,14.509583%,27.449036%);fill-opacity:1;" d="M 181.0625 333.847656 C 183.8125 336.953125 185.566406 339.132812 186.25 343.371094 L 182.039062 353.285156 L 190.269531 349.460938 L 185.863281 349.460938 L 190.96875 346.613281 L 186.25 347.199219 L 190.773438 343.570312 L 187.148438 342.980469 L 190.773438 340.523438 L 186.5625 339.742188 L 188.707031 337.59375 L 185.863281 337.59375 L 185.863281 335.722656 C 186.394531 335.722656 186.136719 335.722656 185.082031 335.722656 L 186.25 333.066406 L 181.0625 333.847656 "/>
<path style=" stroke:none;fill-rule:evenodd;fill:rgb(10.198975%,14.509583%,27.449036%);fill-opacity:1;" d="M 161.035156 293.855469 C 169.574219 300.59375 172.664062 306.480469 170.308594 311.515625 C 169.917969 307.808594 166.828125 301.921875 161.035156 293.855469 "/>
<path style=" stroke:none;fill-rule:evenodd;fill:rgb(10.198975%,14.509583%,27.449036%);fill-opacity:1;" d="M 200.578125 238.261719 C 205.097656 243.433594 209.28125 246.660156 213.125 247.9375 C 211.96875 256.398438 212.324219 264.167969 214.1875 271.25 C 213.945312 264.304688 214.347656 256.132812 215.386719 246.734375 C 211.570312 245.316406 208.621094 242.367188 206.542969 237.882812 L 200.578125 238.261719 "/>
</g>
</svg>
