<?xml version="1.0" encoding="UTF-8"?>
<svg xmlns="http://www.w3.org/2000/svg" xmlns:xlink="http://www.w3.org/1999/xlink" width="375pt" height="374.999991pt" viewBox="0 0 375 374.999991" version="1.2">
<defs>
<clipPath id="clip1">
  <path d="M 149 78.65625 L 226 78.65625 L 226 129 L 149 129 Z M 149 78.65625 "/>
</clipPath>
<clipPath id="clip2">
  <path d="M 109 78.65625 L 266 78.65625 L 266 296.15625 L 109 296.15625 Z M 109 78.65625 "/>
</clipPath>
<clipPath id="clip3">
  <path d="M 147 78.65625 L 227 78.65625 L 227 110 L 147 110 Z M 147 78.65625 "/>
</clipPath>
<clipPath id="clip4">
  <path d="M 130.917969 149 L 205.167969 149 L 205.167969 179 L 130.917969 179 Z M 130.917969 149 "/>
</clipPath>
<clipPath id="clip5">
  <path d="M 166 126.828125 L 170 126.828125 L 170 133 L 166 133 Z M 166 126.828125 "/>
</clipPath>
<clipPath id="clip6">
  <path d="M 166 195 L 170 195 L 170 201.078125 L 166 201.078125 Z M 166 195 "/>
</clipPath>
<clipPath id="clip7">
  <path d="M 203 220.484375 L 219 220.484375 L 219 255.734375 L 203 255.734375 Z M 203 220.484375 "/>
</clipPath>
<clipPath id="clip8">
  <path d="M 182.886719 225 L 199 225 L 199 251 L 182.886719 251 Z M 182.886719 225 "/>
</clipPath>
<clipPath id="clip9">
  <path d="M 223 225 L 238.386719 225 L 238.386719 251 L 223 251 Z M 223 225 "/>
</clipPath>
</defs>
<g id="surface1">
<path style=" stroke:none;fill-rule:nonzero;fill:rgb(0%,29.019165%,67.83905%);fill-opacity:1;" d="M 109.882812 91.34375 C 106.546875 91.671875 95.09375 94.707031 85.441406 120.4375 C 74.96875 148.320312 78.707031 169.851562 78.707031 169.851562 L 109.882812 169.851562 L 109.882812 91.34375 "/>
<g clip-path="url(#clip1)" clip-rule="nonzero">
<path style=" stroke:none;fill-rule:nonzero;fill:rgb(100%,100%,100%);fill-opacity:1;" d="M 222.792969 78.796875 L 152.113281 78.796875 C 150.414062 82.972656 149.46875 87.527344 149.46875 92.308594 C 149.46875 112.097656 160.488281 128.144531 180.292969 128.144531 C 182.75 128.144531 185.140625 127.890625 187.457031 127.421875 C 189.769531 127.890625 192.160156 128.144531 194.617188 128.144531 C 214.417969 128.144531 225.441406 112.097656 225.441406 92.308594 C 225.441406 87.527344 224.496094 82.972656 222.792969 78.796875 "/>
</g>
<path style=" stroke:none;fill-rule:nonzero;fill:rgb(0%,29.019165%,67.83905%);fill-opacity:1;" d="M 265.023438 91.34375 C 268.363281 91.671875 279.820312 94.707031 289.472656 120.4375 C 299.941406 148.320312 296.203125 169.851562 296.203125 169.851562 L 265.023438 169.851562 L 265.023438 91.34375 "/>
<g clip-path="url(#clip2)" clip-rule="nonzero">
<path style=" stroke:none;fill-rule:nonzero;fill:rgb(0%,29.019165%,67.83905%);fill-opacity:1;" d="M 223.144531 78.875 L 223.0625 79.050781 L 226.769531 80.160156 L 226.5625 80.839844 C 226.5625 80.839844 220.460938 109.207031 187.457031 109.445312 C 154.453125 109.207031 148.351562 80.839844 148.351562 80.839844 L 148.144531 80.160156 L 151.847656 79.050781 L 151.765625 78.875 L 109.457031 91.371094 L 109.457031 296.128906 L 265.453125 296.128906 L 265.453125 91.371094 L 223.144531 78.875 "/>
</g>
<g clip-path="url(#clip3)" clip-rule="nonzero">
<path style=" stroke:none;fill-rule:nonzero;fill:rgb(100%,100%,100%);fill-opacity:1;" d="M 222.742188 78.746094 C 221.640625 81.507812 216.339844 104.800781 187.457031 104.855469 C 158.570312 104.800781 153.273438 81.507812 152.167969 78.746094 L 147.976562 79.996094 L 148.351562 80.839844 C 148.351562 80.839844 154.421875 109.121094 187.308594 109.441406 L 187.308594 109.449219 L 187.457031 109.445312 L 187.601562 109.449219 L 187.601562 109.441406 C 220.492188 109.121094 226.5625 80.839844 226.5625 80.839844 L 226.933594 79.996094 L 222.742188 78.746094 "/>
</g>
<path style=" stroke:none;fill-rule:nonzero;fill:rgb(100%,100%,100%);fill-opacity:1;" d="M 265.414062 169.816406 L 296.207031 169.816406 C 296.253906 169.542969 296.84375 165.902344 296.851562 159.847656 L 265.414062 159.847656 L 265.414062 169.816406 "/>
<path style=" stroke:none;fill-rule:nonzero;fill:rgb(100%,100%,100%);fill-opacity:1;" d="M 109.453125 169.816406 L 78.660156 169.816406 C 78.613281 169.542969 78.027344 165.902344 78.019531 159.847656 L 109.453125 159.847656 L 109.453125 169.816406 "/>
<g clip-path="url(#clip4)" clip-rule="nonzero">
<path style=" stroke:none;fill-rule:nonzero;fill:rgb(100%,8.628845%,8.628845%);fill-opacity:1;" d="M 130.917969 149.75 L 205.167969 149.75 L 205.167969 178.15625 L 130.917969 178.15625 Z M 130.917969 149.75 "/>
</g>
<path style=" stroke:none;fill-rule:nonzero;fill:rgb(100%,100%,100%);fill-opacity:1;" d="M 182.96875 165.382812 L 180.921875 165.382812 C 179.722656 165.382812 178.59375 164.914062 177.742188 164.0625 C 176.894531 163.21875 176.425781 162.089844 176.425781 160.886719 L 176.425781 156.390625 L 179.28125 156.390625 L 179.28125 160.886719 C 179.28125 161.324219 179.453125 161.734375 179.757812 162.042969 C 180.074219 162.355469 180.484375 162.523438 180.921875 162.523438 L 182.96875 162.523438 C 183.40625 162.523438 183.816406 162.355469 184.128906 162.042969 C 184.433594 161.738281 184.605469 161.324219 184.605469 160.886719 L 184.605469 156.390625 L 187.460938 156.390625 L 187.460938 160.886719 C 187.460938 162.089844 186.992188 163.21875 186.144531 164.0625 C 185.296875 164.914062 184.167969 165.382812 182.96875 165.382812 Z M 182.96875 165.382812 "/>
<path style=" stroke:none;fill-rule:nonzero;fill:rgb(100%,100%,100%);fill-opacity:1;" d="M 180.515625 162.527344 L 183.371094 162.527344 L 183.371094 171.515625 L 180.515625 171.515625 Z M 180.515625 162.527344 "/>
<path style=" stroke:none;fill-rule:nonzero;fill:rgb(100%,100%,100%);fill-opacity:1;" d="M 155.160156 165.382812 L 150.050781 165.382812 C 149.261719 165.382812 148.621094 164.742188 148.621094 163.953125 L 148.621094 157.820312 C 148.621094 157.03125 149.261719 156.390625 150.050781 156.390625 L 155.160156 156.390625 C 156.363281 156.390625 157.492188 156.859375 158.339844 157.710938 C 159.1875 158.554688 159.65625 159.683594 159.65625 160.886719 C 159.65625 162.089844 159.1875 163.21875 158.335938 164.066406 C 157.492188 164.914062 156.363281 165.382812 155.160156 165.382812 Z M 151.476562 162.527344 L 155.160156 162.527344 C 155.597656 162.527344 156.011719 162.355469 156.316406 162.046875 C 156.628906 161.734375 156.800781 161.324219 156.800781 160.886719 C 156.800781 160.449219 156.628906 160.039062 156.320312 159.730469 C 156.011719 159.417969 155.601562 159.25 155.160156 159.25 L 151.476562 159.25 Z M 151.476562 162.527344 "/>
<path style=" stroke:none;fill-rule:nonzero;fill:rgb(100%,100%,100%);fill-opacity:1;" d="M 155.160156 171.515625 L 150.050781 171.515625 C 149.261719 171.515625 148.621094 170.875 148.621094 170.085938 L 148.621094 163.953125 C 148.621094 163.164062 149.261719 162.523438 150.050781 162.523438 L 155.160156 162.523438 C 156.363281 162.523438 157.492188 162.992188 158.339844 163.84375 C 159.1875 164.6875 159.65625 165.816406 159.65625 167.019531 C 159.65625 168.222656 159.1875 169.351562 158.335938 170.199219 C 157.492188 171.046875 156.363281 171.515625 155.160156 171.515625 Z M 151.476562 168.660156 L 155.160156 168.660156 C 155.597656 168.660156 156.011719 168.488281 156.316406 168.179688 C 156.628906 167.867188 156.800781 167.457031 156.800781 167.019531 C 156.800781 166.582031 156.628906 166.171875 156.320312 165.863281 C 156.011719 165.550781 155.597656 165.382812 155.160156 165.382812 L 151.476562 165.382812 Z M 151.476562 168.660156 "/>
<path style=" stroke:none;fill-rule:nonzero;fill:rgb(100%,100%,100%);fill-opacity:1;" d="M 169.0625 171.515625 L 167.019531 171.515625 C 165.816406 171.515625 164.6875 171.046875 163.839844 170.195312 C 162.992188 169.351562 162.523438 168.222656 162.523438 167.019531 L 162.523438 156.390625 L 165.378906 156.390625 L 165.378906 167.019531 C 165.378906 167.457031 165.550781 167.867188 165.859375 168.175781 C 166.171875 168.488281 166.582031 168.65625 167.019531 168.65625 L 169.0625 168.65625 C 169.5 168.65625 169.910156 168.488281 170.21875 168.179688 C 170.53125 167.867188 170.699219 167.457031 170.699219 167.019531 L 170.699219 156.390625 L 173.554688 156.390625 L 173.554688 167.019531 C 173.554688 168.21875 173.089844 169.347656 172.242188 170.195312 C 171.394531 171.046875 170.265625 171.515625 169.0625 171.515625 Z M 169.0625 171.515625 "/>
<path style=" stroke:none;fill-rule:nonzero;fill:rgb(0%,0%,0%);fill-opacity:1;" d="M 193.285156 136.6875 L 195.304688 138.707031 L 191.554688 142.460938 L 189.535156 140.441406 Z M 193.285156 136.6875 "/>
<path style=" stroke:none;fill-rule:nonzero;fill:rgb(0%,0%,0%);fill-opacity:1;" d="M 180.929688 129.109375 L 183.566406 130.203125 L 181.535156 135.101562 L 178.898438 134.011719 Z M 180.929688 129.109375 "/>
<g clip-path="url(#clip5)" clip-rule="nonzero">
<path style=" stroke:none;fill-rule:nonzero;fill:rgb(0%,0%,0%);fill-opacity:1;" d="M 166.613281 126.828125 L 169.46875 126.828125 L 169.46875 132.132812 L 166.613281 132.132812 Z M 166.613281 126.828125 "/>
</g>
<path style=" stroke:none;fill-rule:nonzero;fill:rgb(0%,0%,0%);fill-opacity:1;" d="M 155.152344 129.105469 L 157.183594 134.007812 L 154.542969 135.101562 L 152.515625 130.199219 Z M 155.152344 129.105469 "/>
<path style=" stroke:none;fill-rule:nonzero;fill:rgb(0%,0%,0%);fill-opacity:1;" d="M 142.800781 136.691406 L 146.550781 140.441406 L 144.53125 142.460938 L 140.78125 138.710938 Z M 142.800781 136.691406 "/>
<path style=" stroke:none;fill-rule:nonzero;fill:rgb(0%,0%,0%);fill-opacity:1;" d="M 144.53125 185.441406 L 146.550781 187.460938 L 142.796875 191.210938 L 140.777344 189.191406 Z M 144.53125 185.441406 "/>
<path style=" stroke:none;fill-rule:nonzero;fill:rgb(0%,0%,0%);fill-opacity:1;" d="M 154.546875 192.804688 L 157.1875 193.898438 L 155.15625 198.796875 L 152.519531 197.707031 Z M 154.546875 192.804688 "/>
<g clip-path="url(#clip6)" clip-rule="nonzero">
<path style=" stroke:none;fill-rule:nonzero;fill:rgb(0%,0%,0%);fill-opacity:1;" d="M 166.613281 195.773438 L 169.46875 195.773438 L 169.46875 201.078125 L 166.613281 201.078125 Z M 166.613281 195.773438 "/>
</g>
<path style=" stroke:none;fill-rule:nonzero;fill:rgb(0%,0%,0%);fill-opacity:1;" d="M 181.539062 192.804688 L 183.570312 197.703125 L 180.933594 198.796875 L 178.902344 193.898438 Z M 181.539062 192.804688 "/>
<path style=" stroke:none;fill-rule:nonzero;fill:rgb(0%,0%,0%);fill-opacity:1;" d="M 198.375 192.269531 L 204.324219 198.21875 L 202.304688 200.238281 L 196.355469 194.289062 Z M 198.375 192.269531 "/>
<path style=" stroke:none;fill-rule:nonzero;fill:rgb(0%,0%,0%);fill-opacity:1;" d="M 192.617188 200.046875 L 186.089844 181.996094 L 204.128906 188.535156 Z M 190.847656 186.761719 L 193.777344 194.851562 L 198.9375 189.691406 Z M 190.847656 186.761719 "/>
<g clip-path="url(#clip7)" clip-rule="nonzero">
<path style=" stroke:none;fill-rule:nonzero;fill:rgb(100%,100%,100%);fill-opacity:1;" d="M 216.480469 220.613281 C 216.222656 220.535156 215.949219 220.484375 215.683594 220.484375 C 214.597656 220.484375 213.632812 221.183594 213.289062 222.207031 L 203.203125 252.421875 C 203.113281 252.675781 203.074219 252.941406 203.074219 253.21875 C 203.074219 254.605469 204.214844 255.734375 205.59375 255.734375 C 206.679688 255.734375 207.644531 255.039062 207.988281 254.015625 L 218.074219 223.800781 C 218.164062 223.542969 218.203125 223.269531 218.203125 223.003906 C 218.203125 221.921875 217.503906 220.957031 216.480469 220.613281 "/>
</g>
<g clip-path="url(#clip8)" clip-rule="nonzero">
<path style=" stroke:none;fill-rule:nonzero;fill:rgb(100%,100%,100%);fill-opacity:1;" d="M 197.292969 226.257812 C 196.820312 225.785156 196.179688 225.519531 195.507812 225.519531 C 194.839844 225.519531 194.199219 225.785156 193.726562 226.257812 L 183.640625 236.332031 C 183.164062 236.800781 182.898438 237.441406 182.898438 238.109375 C 182.898438 238.777344 183.164062 239.417969 183.640625 239.890625 L 193.726562 249.960938 C 194.199219 250.414062 194.828125 250.671875 195.480469 250.671875 C 196.859375 250.671875 198 249.53125 198 248.152344 C 198 247.503906 197.746094 246.875 197.292969 246.402344 L 188.988281 238.109375 L 197.292969 229.820312 C 197.765625 229.347656 198.03125 228.707031 198.03125 228.039062 C 198.03125 227.371094 197.765625 226.730469 197.292969 226.257812 "/>
</g>
<g clip-path="url(#clip9)" clip-rule="nonzero">
<path style=" stroke:none;fill-rule:nonzero;fill:rgb(100%,100%,100%);fill-opacity:1;" d="M 237.636719 236.332031 L 227.550781 226.257812 C 227.078125 225.804688 226.449219 225.550781 225.796875 225.550781 C 224.417969 225.550781 223.277344 226.691406 223.277344 228.070312 C 223.277344 228.71875 223.53125 229.347656 223.984375 229.820312 L 232.289062 238.109375 L 223.984375 246.402344 C 223.492188 246.875 223.21875 247.53125 223.21875 248.210938 C 223.21875 249.597656 224.351562 250.730469 225.738281 250.730469 C 226.417969 250.730469 227.078125 250.453125 227.550781 249.960938 L 237.636719 239.890625 C 238.109375 239.417969 238.375 238.777344 238.375 238.109375 C 238.375 237.441406 238.109375 236.800781 237.636719 236.332031 "/>
</g>
</g>
</svg>
