<?xml version="1.0" encoding="UTF-8"?>
<svg xmlns="http://www.w3.org/2000/svg" xmlns:xlink="http://www.w3.org/1999/xlink" width="375pt" height="374.999991pt" viewBox="0 0 375 374.999991" version="1.2">
<defs>
<clipPath id="clip1">
  <path d="M 203 220.484375 L 219 220.484375 L 219 255.734375 L 203 255.734375 Z M 203 220.484375 "/>
</clipPath>
<clipPath id="clip2">
  <path d="M 182.886719 225 L 199 225 L 199 251 L 182.886719 251 Z M 182.886719 225 "/>
</clipPath>
<clipPath id="clip3">
  <path d="M 223 225 L 238.386719 225 L 238.386719 251 L 223 251 Z M 223 225 "/>
</clipPath>
<clipPath id="clip4">
  <path d="M 123 170 L 145 170 L 145 193.910156 L 123 193.910156 Z M 123 170 "/>
</clipPath>
<clipPath id="clip5">
  <path d="M 120.054688 148 L 133 148 L 133 168 L 120.054688 168 Z M 120.054688 148 "/>
</clipPath>
<clipPath id="clip6">
  <path d="M 120.054688 147.609375 L 147.539062 147.609375 L 147.539062 193.910156 L 120.054688 193.910156 Z M 120.054688 147.609375 "/>
</clipPath>
<clipPath id="clip7">
  <path d="M 173.226562 115.488281 L 218.519531 115.488281 L 218.519531 152.988281 L 173.226562 152.988281 Z M 173.226562 115.488281 "/>
</clipPath>
<clipPath id="clip8">
  <path d="M 206 165 L 210 165 L 210 209.828125 L 206 209.828125 Z M 206 165 "/>
</clipPath>
<clipPath id="clip9">
  <path d="M 205 164.4375 L 211 164.4375 L 211 209.828125 L 205 209.828125 Z M 205 164.4375 "/>
</clipPath>
<clipPath id="clip10">
  <path d="M 200 165 L 204 165 L 204 209.828125 L 200 209.828125 Z M 200 165 "/>
</clipPath>
<clipPath id="clip11">
  <path d="M 199 164.4375 L 205 164.4375 L 205 209.828125 L 199 209.828125 Z M 199 164.4375 "/>
</clipPath>
<clipPath id="clip12">
  <path d="M 194 165 L 198 165 L 198 209.828125 L 194 209.828125 Z M 194 165 "/>
</clipPath>
<clipPath id="clip13">
  <path d="M 193 164.4375 L 199 164.4375 L 199 209.828125 L 193 209.828125 Z M 193 164.4375 "/>
</clipPath>
<clipPath id="clip14">
  <path d="M 188 165 L 192 165 L 192 209.828125 L 188 209.828125 Z M 188 165 "/>
</clipPath>
<clipPath id="clip15">
  <path d="M 187 164.4375 L 193 164.4375 L 193 209.828125 L 187 209.828125 Z M 187 164.4375 "/>
</clipPath>
<clipPath id="clip16">
  <path d="M 182 165 L 186 165 L 186 209.828125 L 182 209.828125 Z M 182 165 "/>
</clipPath>
<clipPath id="clip17">
  <path d="M 181 164.4375 L 187 164.4375 L 187 209.828125 L 181 209.828125 Z M 181 164.4375 "/>
</clipPath>
<clipPath id="clip18">
  <path d="M 173.179688 197 L 218 197 L 218 201 L 173.179688 201 Z M 173.179688 197 "/>
</clipPath>
<clipPath id="clip19">
  <path d="M 173.179688 196 L 218.570312 196 L 218.570312 202 L 173.179688 202 Z M 173.179688 196 "/>
</clipPath>
<clipPath id="clip20">
  <path d="M 173.179688 191 L 218 191 L 218 195 L 173.179688 195 Z M 173.179688 191 "/>
</clipPath>
<clipPath id="clip21">
  <path d="M 173.179688 190 L 218.570312 190 L 218.570312 196 L 173.179688 196 Z M 173.179688 190 "/>
</clipPath>
<clipPath id="clip22">
  <path d="M 173.179688 185 L 218 185 L 218 189 L 173.179688 189 Z M 173.179688 185 "/>
</clipPath>
<clipPath id="clip23">
  <path d="M 173.179688 184 L 218.570312 184 L 218.570312 190 L 173.179688 190 Z M 173.179688 184 "/>
</clipPath>
<clipPath id="clip24">
  <path d="M 173.179688 179 L 218 179 L 218 183 L 173.179688 183 Z M 173.179688 179 "/>
</clipPath>
<clipPath id="clip25">
  <path d="M 173.179688 178 L 218.570312 178 L 218.570312 184 L 173.179688 184 Z M 173.179688 178 "/>
</clipPath>
<clipPath id="clip26">
  <path d="M 173.179688 173 L 218 173 L 218 177 L 173.179688 177 Z M 173.179688 173 "/>
</clipPath>
<clipPath id="clip27">
  <path d="M 173.179688 172 L 218.570312 172 L 218.570312 178 L 173.179688 178 Z M 173.179688 172 "/>
</clipPath>
<clipPath id="clip28">
  <path d="M 60.472656 81.25 L 304.644531 81.25 L 304.644531 307.75 L 60.472656 307.75 Z M 60.472656 81.25 "/>
</clipPath>
</defs>
<g id="surface1">
<g clip-path="url(#clip1)" clip-rule="nonzero">
<path style=" stroke:none;fill-rule:nonzero;fill:rgb(100%,100%,100%);fill-opacity:1;" d="M 216.480469 220.613281 C 216.222656 220.535156 215.949219 220.484375 215.683594 220.484375 C 214.597656 220.484375 213.632812 221.183594 213.289062 222.207031 L 203.203125 252.421875 C 203.113281 252.675781 203.074219 252.941406 203.074219 253.21875 C 203.074219 254.605469 204.214844 255.734375 205.59375 255.734375 C 206.679688 255.734375 207.644531 255.039062 207.988281 254.015625 L 218.074219 223.800781 C 218.164062 223.542969 218.203125 223.269531 218.203125 223.003906 C 218.203125 221.921875 217.503906 220.957031 216.480469 220.613281 "/>
</g>
<g clip-path="url(#clip2)" clip-rule="nonzero">
<path style=" stroke:none;fill-rule:nonzero;fill:rgb(100%,100%,100%);fill-opacity:1;" d="M 197.292969 226.257812 C 196.820312 225.785156 196.179688 225.519531 195.507812 225.519531 C 194.839844 225.519531 194.199219 225.785156 193.726562 226.257812 L 183.640625 236.332031 C 183.164062 236.800781 182.898438 237.441406 182.898438 238.109375 C 182.898438 238.777344 183.164062 239.417969 183.640625 239.890625 L 193.726562 249.960938 C 194.199219 250.414062 194.828125 250.671875 195.480469 250.671875 C 196.859375 250.671875 198 249.53125 198 248.152344 C 198 247.503906 197.746094 246.875 197.292969 246.402344 L 188.988281 238.109375 L 197.292969 229.820312 C 197.765625 229.347656 198.03125 228.707031 198.03125 228.039062 C 198.03125 227.371094 197.765625 226.730469 197.292969 226.257812 "/>
</g>
<g clip-path="url(#clip3)" clip-rule="nonzero">
<path style=" stroke:none;fill-rule:nonzero;fill:rgb(100%,100%,100%);fill-opacity:1;" d="M 237.636719 236.332031 L 227.550781 226.257812 C 227.078125 225.804688 226.449219 225.550781 225.796875 225.550781 C 224.417969 225.550781 223.277344 226.691406 223.277344 228.070312 C 223.277344 228.71875 223.53125 229.347656 223.984375 229.820312 L 232.289062 238.109375 L 223.984375 246.402344 C 223.492188 246.875 223.21875 247.53125 223.21875 248.210938 C 223.21875 249.597656 224.351562 250.730469 225.738281 250.730469 C 226.417969 250.730469 227.078125 250.453125 227.550781 249.960938 L 237.636719 239.890625 C 238.109375 239.417969 238.375 238.777344 238.375 238.109375 C 238.375 237.441406 238.109375 236.800781 237.636719 236.332031 "/>
</g>
<g clip-path="url(#clip4)" clip-rule="nonzero">
<path style=" stroke:none;fill-rule:nonzero;fill:rgb(31.369019%,70.588684%,97.24884%);fill-opacity:1;" d="M 139.902344 193.140625 L 127.6875 193.140625 C 125.160156 193.140625 123.109375 191.066406 123.109375 188.511719 L 123.109375 170.761719 L 144.484375 170.761719 L 144.484375 188.511719 C 144.484375 191.066406 142.433594 193.140625 139.902344 193.140625 "/>
</g>
<path style=" stroke:none;fill-rule:nonzero;fill:rgb(9.799194%,36.079407%,52.159119%);fill-opacity:1;" d="M 123.109375 170.761719 L 123.109375 166.902344 C 123.109375 165.195312 124.472656 163.816406 126.160156 163.816406 L 141.429688 163.816406 C 143.117188 163.816406 144.484375 165.195312 144.484375 166.902344 L 144.484375 170.761719 L 123.109375 170.761719 "/>
<path style=" stroke:none;fill-rule:nonzero;fill:rgb(98.81897%,94.119263%,35.289001%);fill-opacity:1;" d="M 144.484375 173.847656 L 123.109375 173.847656 L 123.109375 170.761719 L 144.484375 170.761719 L 144.484375 173.847656 "/>
<g clip-path="url(#clip5)" clip-rule="nonzero">
<path style=" stroke:none;fill-rule:nonzero;fill:rgb(31.369019%,70.588684%,97.24884%);fill-opacity:1;" d="M 120.816406 151.304688 L 120.816406 156.03125 C 122.101562 157.894531 123.871094 159.1875 126.925781 159.1875 C 127.183594 159.1875 127.4375 159.160156 127.6875 159.125 L 127.6875 167.675781 L 132.269531 167.675781 L 132.269531 153.785156 C 132.269531 150.800781 129.113281 148.382812 126.160156 148.382812 C 124.09375 148.382812 121.929688 149.570312 120.816406 151.304688 "/>
</g>
<path style=" stroke:none;fill-rule:nonzero;fill:rgb(31.369019%,70.588684%,97.24884%);fill-opacity:1;" d="M 146.773438 151.304688 L 146.773438 156.03125 C 145.492188 157.894531 144.484375 159.1875 140.667969 159.1875 C 140.40625 159.1875 140.152344 159.160156 139.902344 159.125 L 139.902344 167.675781 L 135.324219 167.675781 L 135.324219 153.785156 C 135.324219 150.800781 138.476562 148.382812 141.429688 148.382812 C 143.496094 148.382812 145.660156 149.570312 146.773438 151.304688 "/>
<path style=" stroke:none;fill-rule:nonzero;fill:rgb(80.389404%,93.328857%,96.469116%);fill-opacity:1;" d="M 131.503906 170.761719 L 128.453125 170.761719 L 127.6875 167.675781 L 132.269531 167.675781 L 131.503906 170.761719 "/>
<path style=" stroke:none;fill-rule:nonzero;fill:rgb(80.389404%,93.328857%,96.469116%);fill-opacity:1;" d="M 139.140625 170.761719 L 136.085938 170.761719 L 135.324219 167.675781 L 139.902344 167.675781 L 139.140625 170.761719 "/>
<path style=" stroke:none;fill-rule:nonzero;fill:rgb(0%,0%,0%);fill-opacity:1;" d="M 128.023438 152.8125 C 128.496094 153.292969 128.644531 154.09375 128.464844 155.199219 L 129.964844 155.453125 C 130.234375 153.828125 129.945312 152.570312 129.105469 151.726562 C 127.710938 150.3125 125.371094 150.691406 125.273438 150.710938 L 125.523438 152.226562 C 125.539062 152.226562 127.191406 151.976562 128.023438 152.8125 "/>
<path style=" stroke:none;fill-rule:nonzero;fill:rgb(0%,0%,0%);fill-opacity:1;" d="M 124.632812 153.785156 L 123.109375 153.785156 L 123.109375 155.328125 L 124.632812 155.328125 L 124.632812 153.785156 "/>
<g clip-path="url(#clip6)" clip-rule="nonzero">
<path style=" stroke:none;fill-rule:nonzero;fill:rgb(0%,0%,0%);fill-opacity:1;" d="M 121.582031 151.542969 C 122.585938 150.128906 124.433594 149.152344 126.160156 149.152344 C 128.632812 149.152344 131.503906 151.175781 131.503906 153.785156 L 131.503906 166.902344 L 128.453125 166.902344 L 128.453125 159.125 C 128.453125 158.898438 128.355469 158.6875 128.1875 158.539062 C 128.023438 158.394531 127.800781 158.328125 127.582031 158.359375 C 127.328125 158.394531 127.117188 158.414062 126.925781 158.414062 C 124.5625 158.414062 122.90625 157.601562 121.582031 155.785156 Z M 133.007812 167.859375 C 133.015625 167.835938 133.03125 167.710938 133.03125 167.675781 L 133.03125 164.585938 L 134.558594 164.585938 L 134.558594 167.675781 C 134.558594 167.710938 134.574219 167.835938 134.582031 167.859375 L 135.109375 169.988281 L 132.484375 169.988281 Z M 128.667969 168.445312 L 131.289062 168.445312 L 130.910156 169.988281 L 129.046875 169.988281 Z M 143.71875 171.53125 L 143.71875 173.078125 L 123.871094 173.078125 L 123.871094 171.53125 Z M 138.925781 168.445312 L 138.542969 169.988281 L 136.683594 169.988281 L 136.300781 168.445312 Z M 136.085938 153.785156 C 136.085938 151.175781 138.957031 149.152344 141.429688 149.152344 C 143.15625 149.152344 145.003906 150.128906 146.011719 151.542969 L 146.011719 155.789062 C 144.90625 157.378906 144.058594 158.414062 140.667969 158.414062 C 140.472656 158.414062 140.265625 158.394531 140.011719 158.359375 C 139.789062 158.328125 139.570312 158.394531 139.402344 158.539062 C 139.234375 158.6875 139.140625 158.898438 139.140625 159.125 L 139.140625 166.902344 L 136.085938 166.902344 Z M 141.429688 164.585938 C 142.695312 164.585938 143.71875 165.625 143.71875 166.902344 L 143.71875 169.988281 L 140.117188 169.988281 L 140.640625 167.859375 C 140.652344 167.835938 140.667969 167.710938 140.667969 167.675781 L 140.667969 164.585938 Z M 143.71875 188.511719 C 143.71875 190.636719 142.007812 192.367188 139.902344 192.367188 L 127.6875 192.367188 C 125.582031 192.367188 123.871094 190.636719 123.871094 188.511719 L 123.871094 174.621094 L 143.71875 174.621094 Z M 123.871094 166.902344 C 123.871094 165.625 124.898438 164.585938 126.160156 164.585938 L 126.925781 164.585938 L 126.925781 167.675781 C 126.925781 167.710938 126.941406 167.835938 126.949219 167.859375 L 127.472656 169.988281 L 123.871094 169.988281 Z M 126.925781 159.957031 L 126.925781 163.042969 L 126.160156 163.042969 C 124.054688 163.042969 122.34375 164.773438 122.34375 166.902344 L 122.34375 188.511719 C 122.34375 191.488281 124.742188 193.910156 127.6875 193.910156 L 139.902344 193.910156 C 142.847656 193.910156 145.246094 191.488281 145.246094 188.511719 L 145.246094 166.902344 C 145.246094 164.773438 143.535156 163.042969 141.429688 163.042969 L 140.667969 163.042969 L 140.667969 159.957031 C 144.695312 159.957031 145.949219 158.578125 147.398438 156.472656 C 147.488281 156.34375 147.539062 156.191406 147.539062 156.03125 L 147.539062 151.304688 C 147.539062 151.160156 147.496094 151.011719 147.414062 150.886719 C 146.15625 148.925781 143.753906 147.609375 141.429688 147.609375 C 138.183594 147.609375 134.558594 150.25 134.558594 153.785156 L 134.558594 163.042969 L 133.03125 163.042969 L 133.03125 153.785156 C 133.03125 150.25 129.40625 147.609375 126.160156 147.609375 C 123.839844 147.609375 121.433594 148.925781 120.175781 150.886719 C 120.097656 151.011719 120.054688 151.160156 120.054688 151.304688 L 120.054688 156.03125 C 120.054688 156.191406 120.101562 156.34375 120.191406 156.472656 C 121.832031 158.851562 123.972656 159.957031 126.925781 159.957031 "/>
</g>
<path style=" stroke:none;fill-rule:nonzero;fill:rgb(0%,0%,0%);fill-opacity:1;" d="M 139.5625 152.820312 C 140.253906 152.117188 141.605469 152.15625 142.070312 152.230469 L 142.320312 150.710938 C 142.21875 150.691406 139.878906 150.316406 138.488281 151.726562 C 137.644531 152.570312 137.355469 153.828125 137.625 155.453125 L 139.128906 155.199219 C 138.945312 154.097656 139.09375 153.296875 139.5625 152.820312 "/>
<path style=" stroke:none;fill-rule:nonzero;fill:rgb(0%,0%,0%);fill-opacity:1;" d="M 144.484375 153.785156 L 142.957031 153.785156 L 142.957031 155.328125 L 144.484375 155.328125 L 144.484375 153.785156 "/>
<path style=" stroke:none;fill-rule:nonzero;fill:rgb(0%,0%,0%);fill-opacity:1;" d="M 126.925781 177.707031 L 129.214844 177.707031 L 129.214844 176.164062 L 126.160156 176.164062 C 125.742188 176.164062 125.398438 176.507812 125.398438 176.933594 L 125.398438 181.566406 L 126.925781 181.566406 L 126.925781 177.707031 "/>
<path style=" stroke:none;fill-rule:nonzero;fill:rgb(0%,0%,0%);fill-opacity:1;" d="M 142.191406 188.511719 L 142.191406 182.335938 L 140.667969 182.335938 L 140.667969 188.511719 C 140.667969 188.933594 140.324219 189.28125 139.902344 189.28125 L 137.613281 189.28125 L 137.613281 190.824219 L 139.902344 190.824219 C 141.167969 190.824219 142.191406 189.789062 142.191406 188.511719 "/>
<path style=" stroke:none;fill-rule:nonzero;fill:rgb(0%,0%,0%);fill-opacity:1;" d="M 136.085938 189.28125 L 134.558594 189.28125 L 134.558594 190.824219 L 136.085938 190.824219 L 136.085938 189.28125 "/>
<g clip-path="url(#clip7)" clip-rule="nonzero">
<path style=" stroke:none;fill-rule:nonzero;fill:rgb(21.958923%,32.548523%,63.139343%);fill-opacity:1;" d="M 217.238281 124.207031 C 217.0625 124.507812 216.390625 125.5625 215.9375 126.222656 L 198.976562 150.8125 C 198.28125 151.820312 196.683594 152.542969 195.484375 152.394531 L 179.679688 150.425781 C 179.664062 150.421875 178.167969 150.273438 175.898438 149.953125 C 174.722656 149.789062 174.214844 148.707031 173.992188 147.828125 C 174.234375 147.964844 174.527344 148.058594 174.859375 148.101562 L 194.449219 150.542969 C 194.578125 150.558594 194.714844 150.566406 194.851562 150.566406 C 196.222656 150.566406 197.753906 149.785156 198.496094 148.710938 L 217.800781 120.722656 C 217.824219 120.683594 217.851562 120.648438 217.875 120.609375 C 217.988281 121.59375 217.960938 122.984375 217.238281 124.207031 Z M 218.175781 119.144531 C 218.15625 119.070312 218.132812 119 218.101562 118.929688 C 217.867188 118.390625 217.332031 118.046875 216.589844 117.953125 L 197 115.511719 C 196.871094 115.496094 196.734375 115.488281 196.597656 115.488281 C 195.226562 115.488281 193.695312 116.269531 192.953125 117.34375 L 173.648438 145.332031 C 173.332031 145.789062 173.191406 146.257812 173.234375 146.683594 C 173.25 147.910156 173.8125 150.265625 175.820312 150.546875 C 178.097656 150.867188 179.605469 151.019531 179.613281 151.019531 L 195.410156 152.988281 C 195.539062 153.003906 195.671875 153.011719 195.804688 153.011719 C 197.148438 153.011719 198.714844 152.234375 199.457031 151.15625 L 216.417969 126.566406 C 216.851562 125.9375 217.539062 124.859375 217.746094 124.515625 C 219.121094 122.183594 218.269531 119.425781 218.175781 119.144531 "/>
</g>
<path style=" stroke:none;fill-rule:nonzero;fill:rgb(98.429871%,99.609375%,99.609375%);fill-opacity:1;" d="M 213.25 121.664062 L 195.53125 119.507812 C 194.5 119.382812 193.167969 119.984375 192.570312 120.847656 L 177.410156 142.828125 C 176.8125 143.695312 177.167969 144.507812 178.199219 144.636719 L 195.917969 146.789062 C 196.949219 146.917969 198.28125 146.316406 198.878906 145.449219 L 214.039062 123.46875 C 214.636719 122.605469 214.28125 121.792969 213.25 121.664062 "/>
<path style=" stroke:none;fill-rule:nonzero;fill:rgb(62.748718%,87.838745%,95.689392%);fill-opacity:1;" d="M 211.933594 123.480469 C 210.570312 123.6875 209.105469 123.796875 207.789062 124.238281 C 207.109375 124.464844 206.308594 124.78125 205.839844 125.371094 C 205.40625 125.921875 205.34375 126.539062 205.09375 127.164062 C 204.425781 128.835938 203.070312 129.765625 201.40625 130.265625 C 199.746094 130.761719 197.71875 130.859375 196.265625 131.886719 C 195.238281 132.613281 194.917969 133.671875 194.78125 134.890625 C 194.691406 135.699219 194.59375 136.625 193.984375 137.222656 C 192.183594 138.992188 189.402344 138.796875 187.113281 139.234375 C 184.515625 139.730469 181.585938 140.390625 179.269531 141.742188 C 178.84375 141.992188 177.945312 142.511719 177.242188 143.125 C 176.90625 143.875 177.289062 144.523438 178.199219 144.636719 L 195.917969 146.789062 C 196.949219 146.917969 198.28125 146.316406 198.878906 145.453125 L 214.039062 123.472656 C 214.117188 123.359375 214.175781 123.246094 214.222656 123.136719 C 213.460938 123.25 212.695312 123.367188 211.933594 123.480469 "/>
<path style=" stroke:none;fill-rule:nonzero;fill:rgb(62.748718%,87.838745%,95.689392%);fill-opacity:1;" d="M 189.535156 147.503906 L 181.058594 146.457031 C 180.953125 146.445312 180.851562 146.523438 180.839844 146.632812 C 180.828125 146.742188 180.902344 146.84375 181.011719 146.855469 L 189.488281 147.902344 C 189.496094 147.902344 189.503906 147.902344 189.511719 147.902344 C 189.613281 147.902344 189.695312 147.828125 189.707031 147.726562 C 189.722656 147.617188 189.644531 147.519531 189.535156 147.503906 "/>
<path style=" stroke:none;fill-rule:nonzero;fill:rgb(62.748718%,87.838745%,95.689392%);fill-opacity:1;" d="M 204 119.394531 C 204.375 119.3125 204.722656 118.960938 204.78125 118.601562 C 204.835938 118.246094 204.582031 118.023438 204.210938 118.105469 C 203.835938 118.183594 203.488281 118.539062 203.429688 118.894531 C 203.371094 119.25 203.628906 119.476562 204 119.394531 "/>
<path style=" stroke:none;fill-rule:nonzero;fill:rgb(62.748718%,87.838745%,95.689392%);fill-opacity:1;" d="M 196.429688 117.859375 L 201.023438 118.449219 C 201.03125 118.449219 201.039062 118.449219 201.046875 118.449219 C 201.144531 118.449219 201.230469 118.378906 201.242188 118.277344 C 201.253906 118.167969 201.179688 118.066406 201.070312 118.054688 L 196.476562 117.460938 C 196.371094 117.449219 196.273438 117.527344 196.257812 117.636719 C 196.246094 117.746094 196.320312 117.84375 196.429688 117.859375 "/>
<path style=" stroke:none;fill-rule:nonzero;fill:rgb(62.748718%,87.838745%,95.689392%);fill-opacity:1;" d="M 208.152344 119.328125 L 213.835938 120.027344 C 213.847656 120.027344 213.855469 120.03125 213.863281 120.03125 C 213.960938 120.03125 214.042969 119.953125 214.054688 119.855469 C 214.070312 119.742188 213.992188 119.644531 213.886719 119.632812 L 208.199219 118.929688 C 208.089844 118.917969 207.992188 118.996094 207.980469 119.105469 C 207.96875 119.214844 208.042969 119.316406 208.152344 119.328125 "/>
<g clip-path="url(#clip8)" clip-rule="nonzero">
<path style=" stroke:none;fill-rule:nonzero;fill:rgb(87.449646%,94.119263%,99.609375%);fill-opacity:1;" d="M 206.027344 165.035156 L 209.609375 165.035156 L 209.609375 209.230469 L 206.027344 209.230469 Z M 206.027344 165.035156 "/>
</g>
<g clip-path="url(#clip9)" clip-rule="nonzero">
<path style=" stroke:none;fill-rule:nonzero;fill:rgb(27.839661%,53.329468%,78.039551%);fill-opacity:1;" d="M 209.011719 165.632812 L 209.011719 208.632812 L 206.625 208.632812 L 206.625 165.632812 L 209.011719 165.632812 M 210.207031 164.4375 L 205.429688 164.4375 L 205.429688 209.828125 L 210.207031 209.828125 Z M 210.207031 164.4375 "/>
</g>
<g clip-path="url(#clip10)" clip-rule="nonzero">
<path style=" stroke:none;fill-rule:nonzero;fill:rgb(87.449646%,94.119263%,99.609375%);fill-opacity:1;" d="M 200.054688 165.035156 L 203.636719 165.035156 L 203.636719 209.230469 L 200.054688 209.230469 Z M 200.054688 165.035156 "/>
</g>
<g clip-path="url(#clip11)" clip-rule="nonzero">
<path style=" stroke:none;fill-rule:nonzero;fill:rgb(27.839661%,53.329468%,78.039551%);fill-opacity:1;" d="M 203.042969 165.632812 L 203.042969 208.632812 L 200.652344 208.632812 L 200.652344 165.632812 L 203.042969 165.632812 M 204.234375 164.4375 L 199.457031 164.4375 L 199.457031 209.828125 L 204.234375 209.828125 Z M 204.234375 164.4375 "/>
</g>
<g clip-path="url(#clip12)" clip-rule="nonzero">
<path style=" stroke:none;fill-rule:nonzero;fill:rgb(87.449646%,94.119263%,99.609375%);fill-opacity:1;" d="M 194.082031 165.035156 L 197.667969 165.035156 L 197.667969 209.230469 L 194.082031 209.230469 Z M 194.082031 165.035156 "/>
</g>
<g clip-path="url(#clip13)" clip-rule="nonzero">
<path style=" stroke:none;fill-rule:nonzero;fill:rgb(27.839661%,53.329468%,78.039551%);fill-opacity:1;" d="M 197.070312 165.632812 L 197.070312 208.632812 L 194.679688 208.632812 L 194.679688 165.632812 L 197.070312 165.632812 M 198.261719 164.4375 L 193.484375 164.4375 L 193.484375 209.828125 L 198.261719 209.828125 Z M 198.261719 164.4375 "/>
</g>
<g clip-path="url(#clip14)" clip-rule="nonzero">
<path style=" stroke:none;fill-rule:nonzero;fill:rgb(87.449646%,94.119263%,99.609375%);fill-opacity:1;" d="M 188.109375 165.035156 L 191.695312 165.035156 L 191.695312 209.230469 L 188.109375 209.230469 Z M 188.109375 165.035156 "/>
</g>
<g clip-path="url(#clip15)" clip-rule="nonzero">
<path style=" stroke:none;fill-rule:nonzero;fill:rgb(27.839661%,53.329468%,78.039551%);fill-opacity:1;" d="M 191.097656 165.632812 L 191.097656 208.632812 L 188.707031 208.632812 L 188.707031 165.632812 L 191.097656 165.632812 M 192.289062 164.4375 L 187.511719 164.4375 L 187.511719 209.828125 L 192.289062 209.828125 Z M 192.289062 164.4375 "/>
</g>
<g clip-path="url(#clip16)" clip-rule="nonzero">
<path style=" stroke:none;fill-rule:nonzero;fill:rgb(87.449646%,94.119263%,99.609375%);fill-opacity:1;" d="M 182.136719 165.035156 L 185.722656 165.035156 L 185.722656 209.230469 L 182.136719 209.230469 Z M 182.136719 165.035156 "/>
</g>
<g clip-path="url(#clip17)" clip-rule="nonzero">
<path style=" stroke:none;fill-rule:nonzero;fill:rgb(27.839661%,53.329468%,78.039551%);fill-opacity:1;" d="M 185.125 165.632812 L 185.125 208.632812 L 182.734375 208.632812 L 182.734375 165.632812 L 185.125 165.632812 M 186.320312 164.4375 L 181.539062 164.4375 L 181.539062 209.828125 L 186.320312 209.828125 Z M 186.320312 164.4375 "/>
</g>
<g clip-path="url(#clip18)" clip-rule="nonzero">
<path style=" stroke:none;fill-rule:nonzero;fill:rgb(87.449646%,94.119263%,99.609375%);fill-opacity:1;" d="M 173.777344 197.285156 L 217.972656 197.285156 L 217.972656 200.871094 L 173.777344 200.871094 Z M 173.777344 197.285156 "/>
</g>
<g clip-path="url(#clip19)" clip-rule="nonzero">
<path style=" stroke:none;fill-rule:nonzero;fill:rgb(27.839661%,53.329468%,78.039551%);fill-opacity:1;" d="M 217.375 197.882812 L 217.375 200.273438 L 174.375 200.273438 L 174.375 197.882812 L 217.375 197.882812 M 218.570312 196.6875 L 173.179688 196.6875 L 173.179688 201.46875 L 218.570312 201.46875 Z M 218.570312 196.6875 "/>
</g>
<g clip-path="url(#clip20)" clip-rule="nonzero">
<path style=" stroke:none;fill-rule:nonzero;fill:rgb(87.449646%,94.119263%,99.609375%);fill-opacity:1;" d="M 173.777344 191.3125 L 217.972656 191.3125 L 217.972656 194.898438 L 173.777344 194.898438 Z M 173.777344 191.3125 "/>
</g>
<g clip-path="url(#clip21)" clip-rule="nonzero">
<path style=" stroke:none;fill-rule:nonzero;fill:rgb(27.839661%,53.329468%,78.039551%);fill-opacity:1;" d="M 217.375 191.910156 L 217.375 194.300781 L 174.375 194.300781 L 174.375 191.910156 L 217.375 191.910156 M 218.570312 190.714844 L 173.179688 190.714844 L 173.179688 195.496094 L 218.570312 195.496094 Z M 218.570312 190.714844 "/>
</g>
<g clip-path="url(#clip22)" clip-rule="nonzero">
<path style=" stroke:none;fill-rule:nonzero;fill:rgb(87.449646%,94.119263%,99.609375%);fill-opacity:1;" d="M 173.777344 185.339844 L 217.972656 185.339844 L 217.972656 188.925781 L 173.777344 188.925781 Z M 173.777344 185.339844 "/>
</g>
<g clip-path="url(#clip23)" clip-rule="nonzero">
<path style=" stroke:none;fill-rule:nonzero;fill:rgb(27.839661%,53.329468%,78.039551%);fill-opacity:1;" d="M 217.375 185.9375 L 217.375 188.328125 L 174.375 188.328125 L 174.375 185.9375 L 217.375 185.9375 M 218.570312 184.746094 L 173.179688 184.746094 L 173.179688 189.523438 L 218.570312 189.523438 Z M 218.570312 184.746094 "/>
</g>
<g clip-path="url(#clip24)" clip-rule="nonzero">
<path style=" stroke:none;fill-rule:nonzero;fill:rgb(87.449646%,94.119263%,99.609375%);fill-opacity:1;" d="M 173.777344 179.371094 L 217.972656 179.371094 L 217.972656 182.953125 L 173.777344 182.953125 Z M 173.777344 179.371094 "/>
</g>
<g clip-path="url(#clip25)" clip-rule="nonzero">
<path style=" stroke:none;fill-rule:nonzero;fill:rgb(27.839661%,53.329468%,78.039551%);fill-opacity:1;" d="M 217.375 179.964844 L 217.375 182.355469 L 174.375 182.355469 L 174.375 179.964844 L 217.375 179.964844 M 218.570312 178.773438 L 173.179688 178.773438 L 173.179688 183.550781 L 218.570312 183.550781 Z M 218.570312 178.773438 "/>
</g>
<g clip-path="url(#clip26)" clip-rule="nonzero">
<path style=" stroke:none;fill-rule:nonzero;fill:rgb(87.449646%,94.119263%,99.609375%);fill-opacity:1;" d="M 173.777344 173.398438 L 217.972656 173.398438 L 217.972656 176.980469 L 173.777344 176.980469 Z M 173.777344 173.398438 "/>
</g>
<g clip-path="url(#clip27)" clip-rule="nonzero">
<path style=" stroke:none;fill-rule:nonzero;fill:rgb(27.839661%,53.329468%,78.039551%);fill-opacity:1;" d="M 217.375 173.996094 L 217.375 176.382812 L 174.375 176.382812 L 174.375 173.996094 L 217.375 173.996094 M 218.570312 172.800781 L 173.179688 172.800781 L 173.179688 177.578125 L 218.570312 177.578125 Z M 218.570312 172.800781 "/>
</g>
<path style=" stroke:none;fill-rule:nonzero;fill:rgb(59.609985%,79.998779%,99.21875%);fill-opacity:1;" d="M 180.347656 204.453125 C 179.359375 204.453125 178.554688 203.648438 178.554688 202.660156 L 178.554688 171.605469 C 178.554688 170.617188 179.359375 169.8125 180.347656 169.8125 L 211.402344 169.8125 C 212.390625 169.8125 213.195312 170.617188 213.195312 171.605469 L 213.195312 202.660156 C 213.195312 203.648438 212.390625 204.453125 211.402344 204.453125 Z M 180.347656 204.453125 "/>
<path style=" stroke:none;fill-rule:nonzero;fill:rgb(27.839661%,53.329468%,78.039551%);fill-opacity:1;" d="M 211.402344 170.410156 C 212.0625 170.410156 212.597656 170.945312 212.597656 171.605469 L 212.597656 202.660156 C 212.597656 203.320312 212.0625 203.855469 211.402344 203.855469 L 180.347656 203.855469 C 179.6875 203.855469 179.152344 203.320312 179.152344 202.660156 L 179.152344 171.605469 C 179.152344 170.945312 179.6875 170.410156 180.347656 170.410156 L 211.402344 170.410156 M 211.402344 169.214844 L 180.347656 169.214844 C 179.027344 169.214844 177.957031 170.285156 177.957031 171.605469 L 177.957031 202.660156 C 177.957031 203.980469 179.027344 205.050781 180.347656 205.050781 L 211.402344 205.050781 C 212.722656 205.050781 213.792969 203.980469 213.792969 202.660156 L 213.792969 171.605469 C 213.792969 170.285156 212.722656 169.214844 211.402344 169.214844 Z M 211.402344 169.214844 "/>
<path style=" stroke:none;fill-rule:nonzero;fill:rgb(100%,100%,100%);fill-opacity:1;" d="M 186.320312 181.160156 L 205.429688 181.160156 L 205.429688 193.105469 L 186.320312 193.105469 Z M 186.320312 181.160156 "/>
<path style=" stroke:none;fill-rule:nonzero;fill:rgb(62.748718%,87.838745%,95.689392%);fill-opacity:1;" d="M 281.347656 153.367188 C 285.332031 168.136719 284.339844 185.179688 271.714844 195.480469 C 251.214844 212.203125 221.351562 206.898438 197.484375 203.535156 C 183.378906 201.550781 169.519531 200.597656 155.503906 203.917969 C 141.160156 207.316406 128.410156 213.726562 115.597656 220.875 C 100.3125 229.402344 85.207031 238.382812 69.355469 245.707031 L 69.355469 257.292969 L 72.675781 259.386719 L 298.476562 217.261719 L 303.28125 213.925781 L 303.28125 90.339844 C 303.28125 88.496094 300.242188 85.9375 298.410156 86.28125 L 217.824219 102.664062 C 230.097656 104.808594 242.113281 108.40625 252.683594 114.699219 C 266.972656 123.214844 277.003906 137.25 281.347656 153.367188 "/>
<g clip-path="url(#clip28)" clip-rule="nonzero">
<path style=" stroke:none;fill-rule:nonzero;fill:rgb(21.958923%,32.548523%,63.139343%);fill-opacity:1;" d="M 301.796875 213.925781 L 298.476562 214.546875 L 72.675781 256.671875 L 69.355469 257.292969 L 69.355469 133.703125 C 69.355469 131.859375 70.847656 130.085938 72.675781 129.742188 L 217.824219 102.664062 L 298.476562 87.617188 C 300.308594 87.277344 301.796875 88.496094 301.796875 90.339844 Z M 66.511719 134.234375 L 66.511719 274.523438 C 66.511719 275.949219 66.996094 277.167969 67.800781 278.066406 C 67.53125 278.113281 67.261719 278.140625 67 278.140625 C 64.832031 278.140625 63.316406 276.582031 63.316406 274.347656 L 63.316406 132.261719 C 63.316406 129.5 65.644531 126.734375 68.398438 126.222656 L 276.257812 87.441406 C 276.355469 87.425781 286.230469 85.625 291.632812 84.574219 C 293.011719 84.304688 294.277344 84.167969 295.398438 84.167969 C 296.808594 84.167969 297.902344 84.378906 298.753906 84.714844 C 298.664062 84.730469 298.570312 84.738281 298.476562 84.753906 L 72.675781 126.878906 C 69.277344 127.515625 66.511719 130.8125 66.511719 134.234375 Z M 304.472656 88.417969 C 304.230469 85.015625 301.761719 81.308594 295.398438 81.308594 C 294.097656 81.308594 292.648438 81.460938 291.09375 81.761719 C 285.707031 82.8125 275.851562 84.605469 275.746094 84.625 L 67.878906 123.40625 C 63.792969 124.167969 60.472656 128.140625 60.472656 132.261719 L 60.472656 274.347656 C 60.472656 278.140625 63.277344 281 66.996094 281 C 67.457031 281 67.929688 280.957031 68.398438 280.871094 L 167.128906 262.453125 L 167.128906 274.101562 C 148.648438 278.628906 122.765625 286.476562 121.816406 295.09375 C 121.804688 295.148438 121.789062 295.203125 121.785156 295.261719 L 121.347656 300.988281 C 121.34375 301.023438 121.34375 301.058594 121.34375 301.097656 C 121.34375 302.484375 121.964844 303.742188 123.144531 304.726562 C 126.046875 307.15625 132.734375 308.066406 141 308.066406 C 154.96875 308.066406 173.4375 305.460938 185.734375 303.167969 C 188.328125 302.683594 249.273438 291.160156 249.269531 277.703125 L 249.601562 272.136719 C 249.601562 272.132812 249.597656 272.125 249.597656 272.121094 C 249.597656 272.109375 249.601562 272.09375 249.601562 272.082031 C 249.601562 267.390625 243.253906 265.136719 230.195312 265.136719 C 221.890625 265.136719 210.933594 266.105469 199.335938 267.785156 L 199.335938 256.445312 L 297.089844 238.203125 C 298.316406 237.976562 299.472656 237.453125 300.496094 236.726562 C 302.90625 235.433594 304.644531 232.804688 304.644531 230.097656 L 304.644531 89.808594 C 304.644531 89.316406 304.582031 88.855469 304.472656 88.417969 "/>
</g>
<path style=" stroke:none;fill-rule:nonzero;fill:rgb(93.328857%,27.839661%,50.19989%);fill-opacity:1;" d="M 229.71875 238.3125 C 229.71875 235.949219 227.585938 234.414062 224.976562 234.902344 L 146.230469 249.59375 C 143.621094 250.078125 141.488281 252.410156 141.488281 254.773438 C 141.488281 257.132812 143.621094 258.667969 146.230469 258.183594 L 224.976562 243.492188 C 227.585938 243.003906 229.71875 240.671875 229.71875 238.3125 "/>
<path style=" stroke:none;fill-rule:nonzero;fill:rgb(93.328857%,27.839661%,50.19989%);fill-opacity:1;" d="M 72.007812 272.027344 L 77.699219 270.96875 C 78.226562 270.871094 78.648438 270.363281 78.648438 269.835938 L 78.648438 268.882812 C 78.648438 268.355469 78.226562 268.007812 77.699219 268.105469 L 72.007812 269.167969 C 71.484375 269.265625 71.058594 269.769531 71.058594 270.296875 L 71.058594 271.25 C 71.058594 271.78125 71.484375 272.125 72.007812 272.027344 "/>
<path style=" stroke:none;fill-rule:nonzero;fill:rgb(93.328857%,27.839661%,50.19989%);fill-opacity:1;" d="M 300.65625 228.417969 L 300.65625 227.464844 C 300.65625 226.9375 300.230469 226.589844 299.707031 226.6875 L 294.011719 227.75 C 293.488281 227.847656 293.0625 228.355469 293.0625 228.878906 L 293.0625 229.835938 C 293.0625 230.359375 293.488281 230.710938 294.011719 230.613281 L 299.707031 229.550781 C 300.230469 229.453125 300.65625 228.945312 300.65625 228.417969 "/>
<path style=" stroke:none;fill-rule:nonzero;fill:rgb(93.328857%,27.839661%,50.19989%);fill-opacity:1;" d="M 281.679688 232.914062 L 287.371094 231.851562 C 287.894531 231.75 288.320312 231.246094 288.320312 230.71875 L 288.320312 229.765625 C 288.320312 229.238281 287.894531 228.890625 287.371094 228.988281 L 281.679688 230.050781 C 281.15625 230.148438 280.730469 230.65625 280.730469 231.179688 L 280.730469 232.136719 C 280.730469 232.660156 281.15625 233.011719 281.679688 232.914062 "/>
<path style=" stroke:none;fill-rule:nonzero;fill:rgb(93.328857%,27.839661%,50.19989%);fill-opacity:1;" d="M 267.449219 235.566406 L 273.140625 234.503906 C 273.664062 234.40625 274.089844 233.902344 274.089844 233.375 L 274.089844 232.417969 C 274.089844 231.890625 273.664062 231.542969 273.140625 231.640625 L 267.449219 232.703125 C 266.925781 232.800781 266.5 233.308594 266.5 233.835938 L 266.5 234.789062 C 266.5 235.316406 266.925781 235.664062 267.449219 235.566406 "/>
<path style=" stroke:none;fill-rule:nonzero;fill:rgb(98.429871%,99.609375%,99.609375%);fill-opacity:1;" d="M 171.820312 261.078125 L 169.972656 261.421875 L 169.972656 273.417969 C 170.601562 273.269531 171.21875 273.121094 171.820312 272.984375 L 171.820312 261.078125 "/>
<path style=" stroke:none;fill-rule:nonzero;fill:rgb(98.429871%,99.609375%,99.609375%);fill-opacity:1;" d="M 185.953125 297.660156 C 169.503906 300.730469 152.773438 302.757812 141.191406 302.757812 C 141.191406 302.757812 141.191406 302.757812 141.1875 302.757812 C 132.851562 302.757812 127.253906 301.742188 124.292969 299.789062 L 124.191406 301.144531 C 124.199219 301.476562 124.304688 301.96875 124.964844 302.527344 C 130.722656 307.339844 160.304688 305 185.214844 300.351562 C 214.652344 294.859375 246.429688 284.605469 246.429688 277.613281 L 246.4375 277.484375 C 233.890625 288.457031 188.191406 297.246094 185.953125 297.660156 "/>
<path style=" stroke:none;fill-rule:nonzero;fill:rgb(98.429871%,99.609375%,99.609375%);fill-opacity:1;" d="M 174.035156 278.285156 C 174.6875 278.832031 175.5 279.117188 176.382812 279.117188 C 176.644531 279.117188 176.910156 279.089844 177.179688 279.039062 L 194.636719 275.863281 C 196.984375 275.425781 198.898438 273.144531 198.898438 270.777344 C 198.898438 270.515625 198.6875 270.300781 198.421875 270.300781 C 198.160156 270.300781 197.949219 270.515625 197.949219 270.777344 C 197.949219 272.707031 196.386719 274.566406 194.46875 274.925781 L 177.011719 278.101562 C 176.109375 278.269531 175.265625 278.074219 174.640625 277.554688 C 174.035156 277.046875 173.699219 276.28125 173.699219 275.398438 C 173.699219 275.136719 173.488281 274.921875 173.226562 274.921875 C 172.964844 274.921875 172.753906 275.136719 172.753906 275.398438 C 172.753906 276.570312 173.207031 277.59375 174.035156 278.285156 "/>
</g>
</svg>
